<svg width="30" height="31" fill="none" xmlns="http://www.w3.org/2000/svg"><path d="M0 20.875c0 .302.156.584.412.745l14.121 8.847a.877.877 0 00.934 0l14.12-8.847a.879.879 0 00-.005-1.493l-3.049-1.88 3.052-1.9a.879.879 0 00-.003-1.494l-3.049-1.88 3.052-1.899a.88.88 0 00.003-1.49L15.467.735a.88.88 0 00-.934 0L.413 9.583a.88.88 0 00.001 1.491l3.032 1.887-3.033 1.895a.879.879 0 00.002 1.492l3.03 1.886L.414 20.13a.88.88 0 00-.413.745zM15 2.518l12.462 7.808L15 18.082 2.538 10.326 15 2.518zM5.107 13.995l9.429 5.868a.878.878 0 00.928 0l9.403-5.851 2.585 1.593L15 23.355 2.54 15.6l2.567-1.605zm0 5.274l9.429 5.868a.878.878 0 00.928 0l9.403-5.852 2.589 1.596L15 28.686l-12.464-7.81 2.571-1.607z" fill="#D32F2F"/></svg>