<svg width="30" height="25" fill="none" xmlns="http://www.w3.org/2000/svg"><path d="M29.564 1.735c-.365-.562-.908-.935-1.53-1.05a2.188 2.188 0 00-1.76.44 2.603 2.603 0 00-.959 1.67l-.096.596a60.117 60.117 0 00-20.432-.005l-.103-.639C4.465 1.347 3.246.4 1.964.638.683.876-.183 2.211.035 3.614l3.67 20.123c.107.698.663 1.193 1.29 1.193.072 0 .145-.006.219-.02l2.07-.384c.711-.132 1.192-.873 1.071-1.652l-1.663-7.179a58.261 58.261 0 0116.625-.002l-1.67 7.227c-.06.377.02.757.223 1.069.202.312.503.52.848.583l2.07.384a1.208 1.208 0 00.977-.244 1.45 1.45 0 00.533-.929l3.67-20.122a2.754 2.754 0 00-.403-1.926zm-2.27.96a.555.555 0 01.447-.113c.158.03.296.125.388.267a.7.7 0 01.102.49l-.09.588-1.186-.22.095-.588a.661.661 0 01.244-.425zm-25.526.598c-.055-.357.165-.696.49-.757.326-.06.637.18.692.537l.102.63-1.186.22-.098-.63zM6.545 22.71l-1.182.22-1.596-6.739a61.21 61.21 0 011.182-.218l1.596 6.737zM3.48 14.291L2.16 5.82l2.116-.392a58.54 58.54 0 0121.426 0l2.119.393-1.287 8.469a60.01 60.01 0 00-23.054.001zm21.157 8.685l-1.182-.22 1.603-6.785c.394.069.788.14 1.182.217l-1.603 6.788z" fill="#D32F2F"/></svg>