<svg width="25" height="27" fill="none" xmlns="http://www.w3.org/2000/svg"><path d="M15.72 26.808H4.64C2.082 26.808 0 24.93 0 22.62V8.43c0-2.31 2.082-4.189 4.64-4.189h11.08c2.558 0 4.64 1.88 4.64 4.189v14.19c0 2.31-2.082 4.188-4.64 4.188zM4.64 6.336c-1.279 0-2.32.94-2.32 2.094v14.19c0 1.154 1.041 2.094 2.32 2.094h11.08c1.279 0 2.32-.94 2.32-2.094V8.43c0-1.155-1.041-2.094-2.32-2.094H4.64zM25 20.002V4.189C25 1.879 22.918 0 20.36 0H7.483c-.641 0-1.16.469-1.16 1.047 0 .579.519 1.047 1.16 1.047H20.36c1.279 0 2.32.94 2.32 2.095v15.813c0 .578.52 1.047 1.16 1.047.64 0 1.16-.469 1.16-1.047z" fill="#D32F2F"/></svg>