<svg width="30" height="23" fill="none" xmlns="http://www.w3.org/2000/svg"><path d="M22.965 1.645h-1.103V0H0v14.515C0 18.918 3.831 22.5 8.541 22.5h4.78c4.607 0 8.373-3.429 8.535-7.7h1.109c3.88 0 7.035-2.951 7.035-6.578 0-3.627-3.156-6.577-7.035-6.577zm-1.103 4.93h1.103c.971 0 1.761.74 1.761 1.647 0 .908-.79 1.647-1.761 1.647h-1.103V6.575zm-1.758 7.94c0 3.497-3.043 6.341-6.784 6.341H8.541c-3.74 0-6.783-2.844-6.783-6.341V1.644h18.346v12.87zm2.86-1.359h-1.102v-1.643h1.103c1.94 0 3.52-1.476 3.52-3.29 0-1.815-1.58-3.291-3.52-3.291h-1.103V3.288h1.103c2.91 0 5.277 2.214 5.277 4.934s-2.367 4.934-5.277 4.934z" fill="#D32F2F"/></svg>