<svg width="376" height="376" fill="none" xmlns="http://www.w3.org/2000/svg"><g opacity=".03" clip-path="url(#clip0)" fill="#000"><path d="M111.732 297.511L259.6 90.236l-2.332-1.983-144.574 202.658-.962 6.6zm3.849-26.403l134.716-188.84-2.323-1.994-131.44 184.247-.953 6.587zm3.839-26.389l121.583-170.43-2.333-1.981-118.287 165.809-.963 6.602zm3.85-26.402L231.701 66.323l-2.324-1.996-105.145 147.388-.962 6.602zm3.84-26.391l95.297-133.582-2.333-1.982-92.002 128.964-.962 6.6zm3.85-26.403l82.143-115.146-2.323-1.994-78.859 110.54-.961 6.6zm3.839-26.39l69.01-96.735-2.332-1.982-65.716 92.117-.962 6.6zm3.849-26.402l55.858-78.3-2.324-1.993-52.571 73.691-.963 6.602zm3.84-26.389l42.724-59.889-2.332-1.983-39.429 55.27-.963 6.602zm3.85-26.404l29.571-41.452-2.322-1.995-26.288 36.848-.961 6.6zm3.848-26.401l16.428-23.029-2.33-1.984-13.145 18.425-.953 6.588zm3.84-26.391l3.287-4.607-2.324-1.994-.963 6.601zM361.88 177.944l-2.324-1.995-3.365 4.718 5.689-2.723zm-22.739 10.866l13.444-18.845-2.331-1.984-16.802 23.552 5.689-2.723zm-22.747 10.878l26.888-37.69-2.323-1.995-30.245 42.396 5.68-2.711zm-22.738 10.866l40.332-56.536-2.332-1.983-43.681 61.23 5.681-2.711zm-22.738 10.867l53.768-75.369-2.325-1.995-57.133 80.087 5.69-2.723zm-22.738 10.866l67.212-94.214-2.333-1.982-70.568 98.92 5.689-2.724zm-22.748 10.88l80.656-113.06-2.323-1.995-84.012 117.765 5.679-2.71zm-22.738 10.866l94.1-131.906-2.332-1.982-97.448 136.598 5.68-2.71zm-22.739 10.866l107.536-150.738-2.323-1.996-110.902 155.458 5.689-2.724zm-22.738 10.867l120.981-169.585-2.333-1.983-124.337 174.291 5.689-2.723zm-22.747 10.879l134.425-188.43-2.324-1.995L128.79 289.356l5.68-2.711z"/></g><defs><clipPath id="clip0"><path fill="#fff" transform="rotate(-54.496 211.461 108.901)" d="M0 0h266.875v271.45H0z"/></clipPath></defs></svg>