<svg width="21" height="21" fill="none" xmlns="http://www.w3.org/2000/svg"><path d="M17.651.145H3.34A3.197 3.197 0 00.145 3.34v14.313a3.197 3.197 0 003.194 3.193H17.65a3.197 3.197 0 003.194-3.193V3.339c0-.852-.329-1.655-.939-2.255A3.122 3.122 0 0017.65.145zm-1.306 1.161a3.35 3.35 0 013.348 3.349c0 1.52-2.69 5.303-3.232 6.048l-.116.165-.116-.165c-.542-.745-3.232-4.529-3.232-6.048-.01-1.849 1.5-3.349 3.348-3.349zM1.461 18.436a1.975 1.975 0 01-.155-.775V3.34c0-1.123.91-2.033 2.033-2.033h9.967l-.232.242a4.475 4.475 0 00-1.239 3.107c0 .62.3 1.52.881 2.661l.048.097L1.548 18.629l-.087-.194zm16.974 1.103a1.974 1.974 0 01-.774.155H3.34a1.92 1.92 0 01-.775-.155l-.203-.087 8.13-8.13 8.128 8.13-.184.087zm1.258-1.887c0 .27-.048.532-.154.774l-.088.203-8.129-8.129 2.033-2.032.096.155a39.878 39.878 0 002.44 3.56c.106.146.28.223.464.223a.612.612 0 00.464-.222c.252-.33 1.549-2.042 2.623-3.871l.27-.465-.019 9.804z" fill="#D32F2F"/><path d="M6.193 2.632A3.37 3.37 0 002.826 6a3.37 3.37 0 003.367 3.368A3.37 3.37 0 009.561 6c0-.32-.261-.58-.58-.58H6.193a.581.581 0 000 1.16h2.14l-.078.194a2.205 2.205 0 11-.503-2.342.59.59 0 00.822 0 .59.59 0 000-.822 3.369 3.369 0 00-2.38-.978z" fill="#D32F2F"/></svg>