<svg width="28" height="28" fill="none" xmlns="http://www.w3.org/2000/svg"><path d="M19.25 0H8.75A8.75 8.75 0 000 8.75v10.5A8.751 8.751 0 008.75 28h10.5A8.751 8.751 0 0028 19.25V8.75A8.751 8.751 0 0019.25 0zm6.125 19.25a6.132 6.132 0 01-6.125 6.125H8.75a6.132 6.132 0 01-6.125-6.125V8.75A6.132 6.132 0 018.75 2.625h10.5a6.132 6.132 0 016.125 6.125v10.5z" fill="#000"/><path d="M14 7a7 7 0 100 14 7 7 0 000-14zm0 11.375A4.381 4.381 0 019.625 14 4.38 4.38 0 0114 9.625 4.38 4.38 0 0118.375 14 4.381 4.381 0 0114 18.375zm7.525-10.967a.933.933 0 100-1.866.933.933 0 000 1.866z" fill="#000"/></svg>