<svg xmlns="http://www.w3.org/2000/svg" width="2000mm" height="700mm" viewBox="0 0 200000 70000" shape-rendering="geometricPrecision" text-rendering="geometricPrecision" image-rendering="optimizeQuality" fill-rule="evenodd" clip-rule="evenodd"><defs><style>.fil0,.fil1{fill:#2b2a29;fill-rule:nonzero}.fil1{fill:#d32f2f}</style></defs><g id="Слой_x0020_1"><g id="_2122922247136"><path class="fil0" d="M49585.5 48363.84c110.08 444.42 328.64 675.97 875.99 675.97h9089c292.14 0 492.74-77.96 602.24-233.89 109.36-156.07 127.9-372.58 54.9-649.84l-1853.6-5649.27-1220.11-1969.96-25.84 2450.59h3.21c0 345.29-124.54 628.96-373.76 851.9-114.75 102.49-242.06 178.85-381.2 228.64-130.52 47.59-268.64 71.54-413.47 71.54h-3474.47c-325.14 0-599.47-99.28-821.39-296.97l-29.93-27.88c-110.08-106-195.35-231.56-255.21-377.12l-1.46-3.79c-58.69-139.72-87.3-288.64-87.3-446.32l4.81-87.45 265.28-11120.43h-2.77c0-768.24 389.52-1151.78 1168.57-1151.78h1747.31L49530.6 15615.9c-137.53-418.72-437.85-623.7-875.99-623.7-582.1 0-1272.23 13.87-1932.15 7.74l-36.06-.44-350.69-5.55-61.32-1.75h-36.35l-18.98-.29c-733.35 0-795.69 190.67-881.69 508.66-478.14 2471.02-921.39 5006.14-1470.93 7455.13-11.68 51.24-21.32 100.3-27.45 149.94-14.45 115.19-11.97 238.12 24.82 419.45 2216.41 9622.33 5721.69 24838.75 5721.69 24838.75z"/><path class="fil1" d="M39721.98 43373.92l-1977.76 1977.76 499.11-1977.76h1478.65zm-5665.97 5665.89l-5806.62 5806.46c-215.83 215.75-565.35 215.75-781.18 0-215.84-215.83-215.84-565.43 0-781.27l5025.27-5025.19h1562.53zm-2835-19064.76c141.2 0 282.72 53.91 390.56 161.83 215.83 215.83 215.83 565.52 0 781.35L18030.62 44499.02c-215.76 215.83-565.36 215.83-781.19 0-215.84-215.83-215.84-565.36 0-781.19l13580.79-13580.95c107.91-107.92 249.35-161.83 390.79-161.83zm-5767.32 625.75c141.28 0 282.71 53.84 390.63 161.76 215.83 215.83 215.83 565.59 0 781.35l-7188.26 7188.18c-215.84 215.83-565.44 215.83-781.27 0-215.83-215.83-215.83-565.43 0-781.27l7188.18-7188.26c107.92-107.92 249.28-161.76 390.72-161.76zm1740.97 15017.23l-5775.23 5775.15c-215.83 215.83-565.36 215.83-781.19 0-215.83-215.75-215.83-565.35 0-781.19l7319.42-7319.42-763 2325.46zm2510.86-7652.34L19257.78 48413.5c-215.83 215.83-565.59 215.83-781.43 0-215.83-215.83-215.83-565.59 0-781.42L30468.6 35639.91l-763.08 2325.78zm-791.08 11074.12l-4541.89 4541.82c-215.84 215.99-565.44 215.99-781.19 0-215.84-215.59-215.84-565.35 0-781.19l3760.63-3760.63h1562.45zm12131.87-3182.55c141.28 0 282.72 53.84 390.63 161.76 215.84 215.83 215.84 565.59 0 781.43l-7524.11 7524.11c-215.83 215.75-565.43 215.75-781.26 0-215.99-215.84-215.99-565.6 0-781.43l7524.18-7524.11c107.84-107.92 249.12-161.76 390.56-161.76z"/><path class="fil0" d="M46885.58 43373.94h-8642.26l-1259.37 4989.97c-36.37 450.5-328.69 675.86-876.03 675.86h-9088.97c-292.08 0-492.68-77.88-602.24-233.88-109.33-156.01-127.86-372.61-54.89-649.82l10677.02-32540.09c137.47-418.86 437.79-623.78 876.03-623.78h5894.55c927.03 19.71 686.64 542 670.63 829.92-1282.71 6979.1-2625.8 13380.42-4375.11 20222.5h5258.46c634.95 0 693.27 165.01 775.16 440.51l1333.25 6065.95c109.11 592.38-199.68 834.3-586.23 822.86z"/><path class="fil1" d="M52468.39 43376.09c-124.83 0-222.65-31.83-294.05-95.34-71.24-63.65-106.87-151.11-106.87-262.36l267.33-11207.88c0-238.41 124.68-357.69 374.19-357.69h3795.09c196.08 0 338.57 87.45 427.63 262.36l2672.8 5222.37 2619.07-5222.37c107.02-174.91 258.42-262.36 454.49-262.36h3795.09c106.87 0 196.08 31.82 267.18 95.48 71.39 63.51 107.02 150.96 107.02 262.21l267.32 11207.88c0 111.25-35.77 198.71-106.87 262.36-71.4 63.51-169.36 95.34-294.04 95.34h-3474.48c-249.51 0-374.19-119.28-374.19-357.7l-53.44-2551.62c0-429.23 35.62-1104.77 106.87-2026.9l80.16-1049.29h-80.16l-507.78 930.01c-356.38 699.63-668.24 1256.03-935.41 1669.35l-1389.77 2241.52c-107.01 158.99-267.32 238.42-481.06 238.42-249.51 0-418.73-79.43-507.93-238.42l-1389.76-2241.52c-249.51-413.32-614.8-1073.09-1095.87-1979.3l-320.76-620.06h-80.15c0 254.48 17.81 667.8 53.58 1240.11 53.44 619.91 80.15 1232.09 80.15 1836.08l-26.71 2551.62c0 111.25-35.63 198.71-107.02 262.36-71.1 63.51-160.31 95.34-267.18 95.34h-3474.47zm22717.82 262.36c-2191.58 0-3795.23-397.56-4810.8-1192.37-1015.71-794.82-1523.49-2010.99-1523.49-3648.51V36269.9c0-3386.3 2075.81-5079.3 6227.42-5079.3 4169.43 0 6254 1645.41 6254 4936.22v1883.82c0 111.25-35.62 198.7-107.01 262.36-71.11 63.51-169.22 95.33-293.9 95.33h-7483.6v786.94c0 492.89 124.68 858.47 374.34 1096.89 249.37 238.56 659.19 357.69 1229.31 357.69 481.07 0 855.26-71.54 1122.58-214.62 267.33-143.07 400.92-365.58 400.92-667.65 0-190.82 124.68-286.15 374.19-286.15h3714.94c267.32 0 400.91 111.25 400.91 333.89 0 1351.22-467.64 2332.92-1403.19 2944.94-935.27 612.18-2427.67 918.19-4476.62 918.19zm1603.51-7440.09V35936c0-604.15-129.21-1037.32-387.48-1299.68-258.27-262.22-681.52-393.47-1269.61-393.47-605.75 0-1037.9 131.25-1296.17 393.47-258.27 262.36-387.63 695.53-387.63 1299.68v262.36h3340.89zm6788.5 7177.73c-106.73 0-195.93-31.83-267.18-95.34-71.25-63.65-107.02-151.11-107.02-262.36V31810.51c0-111.25 35.77-198.7 107.02-262.21 71.25-63.66 160.45-95.48 267.18-95.48h7937.94c124.69 0 222.65 31.82 294.05 95.48 71.24 63.51 106.87 150.96 106.87 262.21v2742.44c0 111.25-35.63 198.71-106.87 262.22-71.4 63.65-169.36 95.48-294.05 95.48h-3634.78v8107.74c0 111.25-35.62 198.71-107.02 262.36-71.24 63.51-169.21 95.34-293.89 95.34h-3902.25zm21114.18-333.9c0 222.65-124.69 333.9-374.2 333.9h-3340.74c-213.89 0-338.57-95.34-374.19-286.16-53.59-254.33-133.74-707.51-240.61-1359.25-694.95 620.06-1363.04 1092.95-2004.56 1418.82-641.37 326.01-1398.67 488.95-2271.59 488.95-1069.3 0-1902.07-294.19-2499.06-882.42s-895.41-1414.87-895.41-2479.93c0-826.79 164.98-1494.44 494.49-2003.1 329.52-508.81 873.08-906.22 1630.23-1192.37 757.29-286.16 1795.34-492.75 3113.86-620.06l1950.98-190.67v-977.76c0-445.15-84.54-747.22-253.9-906.21-169.21-158.85-476.68-238.42-922.12-238.42-837.45 0-1220.55 349.82-1149.16 1049.3v47.59c0 95.48-35.77 170.97-106.87 226.59-71.39 55.63-160.45 83.51-267.47 83.51h-3501.05c-231.7 0-365.43-119.28-400.91-357.69-17.81-95.49-26.86-246.45-26.86-453.18 0-2368.69 1879.87-3553.03 5639.49-3553.03 1995.51 0 3438.7 337.84 4329.73 1013.38 890.89 675.68 1336.33 1776.66 1336.33 3302.78v4745.4c0 1097.03 44.38 2011.13 133.59 2742.43v47.6zm-6654.91-2360.8c605.74 0 1220.54-278.13 1844.11-834.53V38273l-1069.01 95.33c-623.85 63.66-1060.24 194.77-1309.75 393.47-249.37 198.71-374.05 512.75-374.05 941.98 0 349.67 71.25 600.06 213.74 751.17 142.5 150.96 374.2 226.44 694.96 226.44zm9300.84 2694.7c-124.68 0-222.65-31.83-293.89-95.34-71.25-63.65-107.02-151.11-107.02-262.36V28114.41c0-111.25 35.77-198.7 107.02-262.36 71.24-63.51 169.21-95.34 293.89-95.34h5639.49c2440.95 0 4218.34 456.98 5332.02 1371.22 1113.53 914.1 1670.37 2293.2 1670.37 4137.31 0 1732.86-579.03 3064.22-1737.24 3994.24-1158.21 930.01-2895.45 1395.01-5211.71 1395.01h-1256.18v4363.9c0 111.25-35.62 198.71-107.01 262.36-71.1 63.51-160.31 95.34-267.18 95.34h-4062.56zm5639.49-8393.9c1461.01 0 2191.59-580.35 2191.59-1740.89 0-635.82-178.27-1088.86-534.65-1359.25-356.38-270.24-908.55-405.29-1656.94-405.29h-1202.74v3505.43h1202.74zm9327.42 8393.9c-124.69 0-222.65-31.83-293.9-95.34-71.25-63.65-107.02-151.11-107.02-262.36V28114.41c0-111.25 35.77-198.7 107.02-262.36 71.25-63.51 169.21-95.34 293.9-95.34h6120.55c2458.77 0 4249.58 433.18 5372.17 1299.68 1122.29 866.36 1683.65 2166.04 1683.65 3898.75 0 2257.58-962.27 3664.42-2886.39 4220.82v47.75l3821.81 5723.14c53.58 63.66 80.15 135.2 80.15 214.62 0 143.08-106.72 214.62-320.61 214.62h-4516.76c-213.89 0-374.34-79.42-481.21-238.42l-3260.74-5270.11h-1175.87v5150.83c0 111.25-35.62 198.71-107.02 262.36-71.1 63.51-160.3 95.34-267.18 95.34h-4062.55zm6200.85-8894.68c712.62 0 1247.12-123.22 1603.5-369.67 356.24-246.44 534.51-631.88 534.51-1156.6 0-524.57-164.84-910.01-494.36-1156.45-329.66-246.45-859.78-369.67-1590.36-369.67h-1817.39v3052.39h1764.1zm9942.22 8894.68c-124.69 0-222.8-31.83-293.9-95.34-71.39-63.65-107.01-151.11-107.01-262.36V28114.41c0-111.25 35.62-198.7 107.01-262.36 71.1-63.51 169.21-95.34 293.9-95.34h4062.41c106.87 0 196.08 31.83 267.32 95.34 71.25 63.66 107.02 151.11 107.02 262.36v14903.98c0 111.25-35.77 198.71-107.02 262.36-71.24 63.51-160.45 95.34-267.32 95.34h-4062.41zm7456.73 0c-124.68 0-222.65-31.83-293.89-95.34-71.4-63.65-107.02-151.11-107.02-262.36V28114.41c0-111.25 35.62-198.7 107.02-262.36 71.24-63.51 169.21-95.34 293.89-95.34h4944.54c196.08 0 338.57 87.46 427.48 262.36l2779.67 5341.51c338.57 651.89 690.43 1379.1 1055.86 2181.95 365.15 802.85 636.85 1474.59 814.97 2015.07h107.02c-107.02-572.31-187.17-1307.56-240.46-2205.89-53.59-898.18-80.3-1696.94-80.3-2396.57v-4840.73c0-111.25 31.09-198.7 93.44-262.36 62.34-63.51 147.16-95.34 254.03-95.34h3901.96c107.02 0 196.08 31.83 267.47 95.34 71.1 63.66 106.73 151.11 106.73 262.36v14903.98c0 111.25-35.63 198.71-106.73 262.36-71.39 63.51-160.45 95.34-267.47 95.34h-4970.96c-178.26 0-320.76-87.45-427.78-262.36l-2645.93-5079.29c-445.44-858.48-944.32-1995.08-1496.63-3409.95l-347.48-858.47h-106.87c124.68 1176.46 187.03 2734.41 187.03 4673.85v4578.52c0 111.25-35.77 198.71-106.88 262.36-71.39 63.51-169.35 95.34-294.04 95.34h-3848.67zm20927.16 0c-249.66 0-374.34-119.28-374.34-357.7V31476.76h-4035.7c-107.01 0-195.93-31.83-267.32-95.48-71.25-63.51-106.87-143.08-106.87-238.42v-3028.45c0-111.25 35.62-198.7 106.87-262.36 71.39-63.51 160.31-95.34 267.32-95.34h12908.91c107.02 0 191.7 31.83 254.04 95.34 62.34 63.66 93.58 151.11 93.58 262.36v3028.45c0 95.34-31.24 174.91-93.58 238.42-62.34 63.65-147.02 95.48-254.04 95.48h-4035.69v11541.63c0 111.25-35.63 198.71-106.87 262.36-71.25 63.51-160.31 95.34-267.18 95.34h-4089.13zM59732.8 17556.41c66.1-.38 133.44 12.99 197.82 39.26 62.75 25.6 119.87 62.85 168.87 111.85 101.25 102.49 151.78 235.26 151.78 366.98 0 132.2-50.53 264.58-151.78 365.83l-9748.61 9748.99c-101.05 101.25-234.11 152.07-366.88 152.07-131.91 0-264.58-50.82-365.83-151.88l-1.05-1.05c-100.96-101.25-151.87-233.82-151.87-365.73 0-132.87 50.91-265.83 151.87-366.89l9748.8-9748.32c48.52-48.33 105.93-85.58 168.01-111.28 62.66-26.45 130.48-39.16 198.87-39.83zm-2736.77 5193.38c66.1 0 133.44 13.38 197.63 39.83 62.66 25.89 120.45 63.33 168.97 111.85 101.06 101.25 151.87 234.12 151.87 366.89 0 132.19-50.81 264.77-151.87 366.02l-2485.84 2487.28c-102.3 101.05-234.88 151.87-366.79 151.87-132.86 0-265.63-50.82-366.88-151.87-101.25-101.25-151.87-234.31-151.87-366.89 0-132.19 50.62-264.49 151.87-365.73l2486.22-2487.57c48.33-48.04 105.74-85.77 168.21-111.37 63.71-26.93 131.34-40.31 198.48-40.31zm-5856.84-3090.08c67.15 0 134.77 13.37 198.96 40.02 62.28 26.08 119.69 63.61 168.11 112.04 101.54 101.54 152.07 234.11 152.07 366.69 0 131.53-50.53 263.92-151.59 365.36l-663.85 664.89c-102.3 101.25-234.68 152.07-366.88 152.07-132.58 0-265.35-50.82-366.59-152.07l-.2-1.05c-101.05-101.24-151.68-233.63-151.68-365.83 0-132.19 50.63-264.49 151.68-365.73l663.37-664.33c49.1-49.09 106.79-86.63 168.21-112.04 64.09-26.65 131.72-40.02 198.39-40.02zM57097 17916.32c66.76 0 134.77 13.38 198.96 40.02 60.56 25.03 117.49 62.47 167.54 112.52l.86.77c100.58 101.25 151.39 233.63 151.39 365.45 0 131.91-50.62 264.29-151.39 365.35-1.34 4.21-605.2 605.3-664.71 664.9-101.44 101.25-233.83 151.87-366.02 151.87-132.77 0-265.64-50.62-366.6-151.87-101.25-101.25-152.16-234.11-152.16-366.69 0-132.77 50.91-265.35 151.87-366.6l663.66-662.79c49.76-49.96 107.36-87.88 167.92-112.91 64.19-26.64 132-40.02 198.68-40.02zm-1888.29 1889.34c68.68.19 136.21 13.18 198.49 39.16 61.22 25.69 118.44 63.14 167.53 112.04l1.05.86c101.06 101.25 151.88 233.83 151.88 366.02 0 132.2-50.82 264.59-151.88 365.84l-8044.95 8045.15c-101.06 101.24-233.83 151.87-366.41 151.87-132.2 0-264.58-50.63-365.83-151.59-102.3-101.25-152.92-234.3-152.92-366.88 0-132.86 50.62-265.63 151.87-366.88l8044.57-8044.39c50.63-49.28 107.84-87.01 168.4-112.04 61.99-25.98 129.81-38.97 198.2-39.16z"/><path class="fil0" d="M78374.83 49081.42c-545.16 0-963.3-119.42-1253.84-357.98-290.83-238.71-436.1-582.98-436.1-1032.8v-778.03c0-445.29 146.58-787.22 439.75-1025.93 293.31-238.71 712.76-358.13 1257.92-358.13 334.49 0 622.69 48.18 864.32 144.68 241.92 96.36 424.41 229.51 548.07 399.31 123.37 169.79 179.87 362.66 169.65 578.3 0 96.5-30.8 144.68-92.7 144.68h-694.37c-56.65 0-84.98-36.79-84.98-110.23 0-146.87-62.92-260.46-188.92-340.76-126.29-80.3-297.25-120.45-513.18-120.45-267.62 0-467.05 61.91-598.16 185.86-131.25 123.95-196.81 319.01-196.81 585.16v619.77c0 261.63 64.24 454.35 192.87 578.3 128.62 123.95 326.6 186 594.21 186 221.19 0 393.76-41.32 517.13-123.95 123.52-82.64 185.13-192.87 185.13-330.54 0-68.91 28.32-103.22 84.97-103.22h694.51c61.62 0 92.57 25.25 92.57 75.62 10.36 367.34-120.89 656.41-393.47 867.67-272.73 211.12-668.82 316.67-1188.57 316.67zm4796.34 0c-1111.34 0-1667.01-433.76-1667.01-1301.28v-853.8c0-459.02 138.99-806.79 416.83-1043.16 277.83-236.37 691.88-354.63 1242.45-354.63 540.19 0 950.45 113.58 1230.91 340.9 280.32 227.18 420.48 563.41 420.48 1008.71v536.98c0 22.92-9.06 42.49-27.01 58.55-17.96 16.06-39.86 24.09-65.56 24.09h-2315.1v206.58c0 252.44 60.3 437.27 181.33 554.22 120.89 117.09 317.7 175.63 590.28 175.63 210.96 0 374.34-30.95 490.11-93 115.78-61.9 173.59-150.23 173.59-264.99 0-55.18 30.81-82.63 92.71-82.63h709.85c51.54 0 82.2 25.26 92.56 75.63 10.37 326.01-118.26 576.11-385.87 750.57-267.47 174.47-661.08 261.63-1180.55 261.63zm748.39-2134.5v-34.31c0-252.57-60.3-438.43-181.33-557.71-120.88-119.43-309.81-179.14-567.06-179.14-262.5 0-455.37 60.88-578.74 182.5-123.66 121.61-185.27 308.64-185.27 561.22v27.44h1512.4zm3407.03 2051.87c-25.7 0-47.6-8.03-65.56-24.09-18.1-16.06-27.01-35.62-27.01-58.55v-2623.3h-1049.58c-56.5 0-84.68-27.59-84.68-82.64v-516.39c0-55.04 28.18-82.64 84.68-82.64h3002.02c25.7 0 47.6 8.03 65.56 24.09 18.1 16.06 27.01 35.63 27.01 58.55v516.39c0 22.93-8.91 42.49-27.01 58.55-17.96 16.06-39.86 24.09-65.56 24.09h-1041.84v2623.3c0 22.93-9.05 42.49-27.01 58.55-17.96 16.06-39.86 24.09-65.56 24.09h-725.46zm3437.97 0c-56.64 0-84.97-27.59-84.97-82.64v-3222.33c0-55.04 28.33-82.64 84.97-82.64h733.06c25.7 0 47.6 8.03 65.7 24.09 17.96 16.06 26.87 35.63 26.87 58.55v977.75h617.42c493.92 0 868.11 94.02 1122.88 282.22 254.62 188.33 381.93 461.35 381.93 819.49 0 403.83-129.94 709.11-389.67 915.7-259.73 206.59-641.81 309.81-1146.09 309.81h-1412.1zm1396.77-660.94c236.67 0 407.78-44.82 513.19-134.32 105.55-89.49 158.26-228.34 158.26-416.53 0-165.27-57.96-286.89-173.74-365-115.78-77.96-291.85-116.94-528.66-116.94h-540.19v1032.79h571.14zm5602.26 660.94c-56.5 0-84.82-27.59-84.82-82.64v-3222.33c0-55.04 28.32-82.64 84.82-82.64h3048.16c56.65 0 84.97 27.6 84.97 82.64v3222.33c0 55.05-28.32 82.64-84.97 82.64h-733.06c-25.69 0-47.59-8.03-65.55-24.09-17.96-16.06-27.01-35.62-27.01-58.55v-2623.3h-1396.77v2623.3c0 22.93-9.05 42.49-27.01 58.55-17.96 16.06-39.86 24.09-65.55 24.09h-733.21zm6470.81 82.63c-1111.2 0-1667.01-433.76-1667.01-1301.28v-853.8c0-459.02 138.99-806.79 416.82-1043.16 277.84-236.37 691.89-354.63 1242.45-354.63 540.2 0 950.45 113.58 1230.92 340.9 280.31 227.18 420.47 563.41 420.47 1008.71v536.98c0 22.92-8.9 42.49-27.01 58.55-17.96 16.06-39.86 24.09-65.55 24.09h-2315.1v206.58c0 252.44 60.44 437.27 181.33 554.22 120.89 117.09 317.69 175.63 590.42 175.63 210.82 0 374.19-30.95 489.97-93 115.78-61.9 173.74-150.23 173.74-264.99 0-55.18 30.66-82.63 92.56-82.63h709.85c51.53 0 82.34 25.26 92.56 75.63 10.36 326.01-118.26 576.11-385.88 750.57-267.47 174.47-661.08 261.63-1180.54 261.63zm748.39-2134.5v-34.31c0-252.57-60.3-438.43-181.19-557.71-121.03-119.43-309.95-179.14-567.2-179.14-262.51 0-455.37 60.88-578.74 182.5-123.66 121.61-185.27 308.64-185.27 561.22v27.44h1512.4zm4819.41 2051.87c-25.69 0-47.59-8.03-65.7-24.09-17.95-16.06-27.01-35.62-27.01-58.55v-1294.42c-416.53 330.54-840.95 495.81-1273.1 495.81-324.27 0-573.78-91.83-748.68-275.5-174.91-183.52-262.36-454.35-262.36-812.48v-1335.74c0-22.92 9.05-42.49 27.01-58.55 18.1-16.06 40-24.09 65.69-24.09h725.33c61.75 0 92.71 27.6 92.71 82.64v1136.16c0 394.63 151.69 592.02 455.22 592.02 298.42 0 604.43-146.87 918.18-440.62v-1287.56c0-22.92 9.06-42.49 27.01-58.55 18.11-16.06 40.01-24.09 65.7-24.09h725.32c25.7 0 47.6 8.03 65.7 24.09 17.96 16.06 27.01 35.63 27.01 58.55v3222.33c0 22.93-9.05 42.49-27.01 58.55-18.1 16.06-40 24.09-65.7 24.09h-725.32zm5544.74-75.77c0 50.51-28.32 75.77-84.97 75.77h-640.64c-51.39 0-84.68-29.78-100.3-89.5-20.44-105.56-43.66-250.24-69.35-433.76-226.3 206.59-439.9 359.16-640.5 457.85-200.6 98.7-421.79 148.04-663.71 148.04-308.64 0-545.3-82.63-709.99-247.9-164.54-165.27-246.88-401.64-246.88-709.12 0-238.7 51.39-432.74 154.32-581.8 102.93-149.21 270.09-265.14 501.65-347.77 231.41-82.64 545.3-140.01 941.4-172.13l601.95-48.18v-275.36c0-197.39-43.8-335.21-131.11-413.17-87.6-78.11-239.29-117.09-455.22-117.09-385.88 0-576.4 126.29-571.15 378.72 0 55.04-28.32 82.63-84.97 82.63h-694.37c-41.32 0-69.64-16.06-84.97-48.18-15.62-32.12-23.21-87.3-23.21-165.27 0-280.02 132.56-498 397.4-654.07 264.99-156.07 631.45-234.18 1099.67-234.18 499.02 0 866.94 95.33 1103.45 285.72 236.67 190.52 355.22 490.11 355.22 898.62v1432.1c0 293.75 15.33 548.52 46.28 764.3v13.73zm-1890.83-481.95c138.99 0 280.47-36.64 424.42-110.22 144.1-73.44 313.9-197.25 509.39-371.72v-488.95l-524.72 41.32c-298.42 23.07-504.13 73.44-617.43 151.55-113.15 77.96-169.79 204.25-169.79 378.72 0 137.67 30.95 238.71 92.56 302.94 61.9 64.24 156.95 96.36 285.57 96.36zm4472.09 557.72c-25.7 0-47.6-8.03-65.56-24.09-17.95-16.06-27.01-35.62-27.01-58.55v-2623.3h-1049.58c-56.5 0-84.68-27.59-84.68-82.64v-516.39c0-55.04 28.18-82.64 84.68-82.64h3002.02c25.7 0 47.6 8.03 65.7 24.09 17.96 16.06 26.87 35.63 26.87 58.55v516.39c0 22.93-8.91 42.49-26.87 58.55-18.1 16.06-40 24.09-65.7 24.09h-1041.84v2623.3c0 22.93-9.05 42.49-27.01 58.55-17.96 16.06-39.86 24.09-65.56 24.09h-725.46zm6501.75-3387.61c25.55 0 47.45 8.03 65.41 24.09 17.96 16.06 27.01 35.63 27.01 58.55v3222.33c0 22.93-9.05 42.49-27.01 58.55-17.96 16.06-39.86 24.09-65.41 24.09h-733.35c-56.64 0-84.68-27.59-84.68-82.64v-1287.56h-1419.98v1287.56c0 22.93-9.05 42.49-27.01 58.55-18.1 16.06-40 24.09-65.7 24.09h-733.06c-56.64 0-84.97-27.59-84.97-82.64v-3222.33c0-55.04 28.33-82.64 84.97-82.64h733.06c25.7 0 47.6 8.03 65.7 24.09 17.96 16.06 27.01 35.63 27.01 58.55v1253.1h1419.98v-1253.1c0-55.04 28.04-82.64 84.68-82.64h733.35zm1940.76 3387.61c-56.64 0-84.82-27.59-84.82-82.64v-3222.33c0-55.04 28.18-82.64 84.82-82.64h733.06c25.7 0 47.6 8.03 65.7 24.09 17.96 16.06 27.01 35.63 27.01 58.55v977.75h617.29c493.91 0 868.1 94.02 1122.87 282.22 254.62 188.33 381.93 461.35 381.93 819.49 0 403.83-129.94 709.11-389.52 915.7-259.88 206.59-641.96 309.81-1146.09 309.81h-1412.25zm1396.77-660.94c236.67 0 407.78-44.82 513.19-134.32 105.56-89.49 158.26-228.34 158.26-416.53 0-165.27-57.96-286.89-173.59-365-115.92-77.96-292-116.94-528.81-116.94h-540.05v1032.79h571zm2361.39 660.94c-56.51 0-84.83-27.59-84.83-82.64v-3222.33c0-55.04 28.32-82.64 84.83-82.64h733.06c25.69 0 47.74 8.03 65.69 24.09 17.96 16.06 27.01 35.63 27.01 58.55v3222.33c0 22.93-9.05 42.49-27.01 58.55-17.95 16.06-40 24.09-65.69 24.09h-733.06zm2234.07 0c-35.92 0-59.13-9.2-69.5-27.59-10.07-18.25-5.11-41.32 15.62-68.77l1296.47-1645.55-1211.64-1549.19c-10.22-13.87-15.48-29.93-15.48-48.33 0-32.12 25.7-48.18 77.24-48.18h848.69c56.64 0 92.71 16.06 108.18 48.18l424.27 585.31 208.49 302.95c25.7 41.32 48.76 78.11 69.5 110.23 20.58 32.12 38.54 59.56 53.87 82.63h7.74l355.07-523.4 408.94-550.71c20.58-36.79 56.65-55.19 108.18-55.19h818.03c41.03 0 66.72 9.2 77.09 27.6 10.22 18.39 5.11 41.31-15.48 68.91l-1211.49 1535.32 1311.8 1659.42c15.47 18.4 23.06 34.46 23.06 48.18 0 32.12-25.69 48.18-77.08 48.18h-856.58c-46.28 0-82.34-16.06-108.04-48.18l-409.09-550.85-439.74-626.48h-7.74l-424.42 626.48-408.94 550.85c-15.62 32.12-51.54 48.18-108.19 48.18h-848.83zm11004.21-681.67c25.84 0 47.74 8.03 65.7 24.09 17.96 16.06 27.01 35.62 27.01 58.55v1363.33c0 22.92-9.05 42.49-27.01 58.55-17.96 16.06-39.86 24.09-65.7 24.09h-671.16c-25.84 0-47.59-8.03-65.7-24.09-17.95-16.06-26.86-35.63-26.86-58.55v-764.3h-2778.21c-56.65 0-84.97-27.59-84.97-82.64v-3222.33c0-55.04 28.32-82.64 84.97-82.64h733.06c25.7 0 47.6 8.03 65.55 24.09 18.11 16.06 27.01 35.63 27.01 58.55v2623.3h1365.97v-2623.3c0-22.92 8.9-42.49 27.15-58.55 17.96-16.06 39.71-24.09 65.41-24.09h733.2c56.51 0 84.83 27.6 84.83 82.64v2623.3h439.75zm2982.75 764.3c-1111.2 0-1666.87-433.76-1666.87-1301.28v-853.8c0-459.02 138.85-806.79 416.68-1043.16 277.84-236.37 691.89-354.63 1242.45-354.63 540.2 0 950.45 113.58 1230.92 340.9 280.31 227.18 420.47 563.41 420.47 1008.71v536.98c0 22.92-8.9 42.49-26.86 58.55-18.1 16.06-40 24.09-65.7 24.09h-2315.1v206.58c0 252.44 60.44 437.27 181.33 554.22 120.89 117.09 317.84 175.63 590.42 175.63 210.97 0 374.19-30.95 490.12-93 115.63-61.9 173.59-150.23 173.59-264.99 0-55.18 30.66-82.63 92.56-82.63h709.85c51.53 0 82.34 25.26 92.56 75.63 10.37 326.01-118.26 576.11-385.73 750.57-267.61 174.47-661.08 261.63-1180.69 261.63zm748.54-2134.5v-34.31c0-252.57-60.45-438.43-181.33-557.71-120.89-119.43-309.96-179.14-567.21-179.14-262.5 0-455.37 60.88-578.74 182.5-123.51 121.61-185.27 308.64-185.27 561.22v27.44h1512.55zm5706.79-1335.74c25.7 0 47.45 8.03 65.55 24.09 17.96 16.06 27.01 35.63 27.01 58.55v3222.33c0 22.93-9.05 42.49-27.01 58.55-18.1 16.06-39.85 24.09-65.55 24.09h-733.2c-56.65 0-84.83-27.59-84.83-82.64v-1287.56h-1419.98v1287.56c0 22.93-8.91 42.49-27.01 58.55-17.96 16.06-39.86 24.09-65.56 24.09h-733.05c-56.65 0-84.98-27.59-84.98-82.64v-3222.33c0-55.04 28.33-82.64 84.98-82.64h733.05c25.7 0 47.6 8.03 65.56 24.09 18.1 16.06 27.01 35.63 27.01 58.55v1253.1h1419.98v-1253.1c0-55.04 28.18-82.64 84.83-82.64h733.2zm2720.25 3387.61c-25.7 0-47.6-8.03-65.56-24.09-17.95-16.06-27.01-35.62-27.01-58.55v-2623.3h-1049.58c-56.5 0-84.68-27.59-84.68-82.64v-516.39c0-55.04 28.18-82.64 84.68-82.64h3002.02c25.7 0 47.6 8.03 65.7 24.09 17.96 16.06 27.01 35.63 27.01 58.55v516.39c0 22.93-9.05 42.49-27.01 58.55-18.1 16.06-40 24.09-65.7 24.09h-1041.84v2623.3c0 22.93-9.05 42.49-27.01 58.55-17.96 16.06-39.86 24.09-65.55 24.09h-725.47zm5482.98-3470.24c756.27 0 1134.41 406.31 1134.41 1218.79v943.3c0 463.55-116.95 811.32-351.13 1043.02-234.04 231.84-572.46 347.76-1014.69 347.76-159.58 0-330.54-16.06-513.33-48.18-182.65-32.12-340.76-78.1-474.5-137.67v1294.42c0 22.92-9.05 42.49-27.01 58.55-18.1 16.06-40 24.09-65.7 24.09h-733.06c-56.64 0-84.97-27.6-84.97-82.64v-3759.46c0-238.71-17.95-481.94-54.02-729.85v-13.72c0-50.52 30.96-75.78 92.71-75.78h648.09c30.95 0 52.85 5.84 65.7 17.23 12.85 11.53 24.53 30.95 34.75 58.55 30.8 174.46 51.39 293.74 61.76 357.98 210.96-169.79 417.84-298.27 621.07-385.58 203.38-87.16 423.25-130.81 659.92-130.81zm223.81 1356.47c0-224.98-43.65-390.25-131.25-495.81-87.45-105.56-223.67-158.26-408.94-158.26-133.88 0-272.58 32.12-416.83 96.36-143.95 64.23-305.86 165.27-486.03 302.94v1624.97c241.78 96.36 486.03 144.54 733.06 144.54 473.33 0 709.99-261.63 709.99-784.89v-729.85zm4201.84 2196.4c-555.67 0-978.77-117.09-1269.45-351.12-290.69-234.18-435.96-585.31-435.96-1053.53v-743.57c0-463.55 146.59-813.65 439.75-1050.02 293.31-236.37 715.1-354.63 1265.66-354.63 550.57 0 971.04 118.26 1261.73 354.63 290.68 236.37 436.09 586.47 436.09 1050.02v743.57c0 468.22-144.24 819.35-432.15 1053.53-288.2 234.03-709.99 351.12-1265.67 351.12zm0-695.39c272.73 0 472.02-63.21 598.02-189.36 126.14-126.29 189.06-324.84 189.06-595.53v-592.17c0-270.82-62.92-469.38-189.06-595.67-126-126.14-325.29-189.22-598.02-189.22-277.83 0-479.75 63.08-605.89 189.22-126 126.29-188.92 324.85-188.92 595.67v592.17c0 270.69 62.92 469.24 188.92 595.53 126.14 126.15 328.06 189.36 605.89 189.36zm3453.46 612.76c-56.65 0-84.97-27.59-84.97-82.64v-3222.33c0-55.04 28.32-82.64 84.97-82.64h1489.33c910.59 0 1365.82 275.5 1365.82 826.21 0 408.65-197.98 663.42-594.07 764.3v13.87c231.55 41.32 412.74 128.48 543.99 261.63 131.11 133.01 196.66 298.28 196.66 495.67 0 362.66-114.32 624.29-343.24 784.89-228.93 160.74-616.12 241.04-1161.42 241.04h-1497.07zm1497.07-2010.55c185.12 0 313.75-34.45 385.87-103.22 71.98-68.91 107.89-169.8 107.89-302.95 0-114.75-38.54-200.89-115.63-258.27-77.23-57.38-210.96-85.99-401.2-85.99h-671.45v750.43h694.52zm38.54 1390.93c205.71 0 353.61-35.62 443.84-106.72 89.93-71.25 134.9-180.17 134.9-327.04 0-270.83-190.24-406.32-571-406.32h-740.8v840.08h733.06z"/><path d="M179960.14 24004.36c1259.85-256.61 2273.23 698.35 2458.51 1750.45 228.08 1295.05-668.12 2283.89-1715.49 2487.26-1269.95 246.59-2254.76-701.29-2450.72-1734.92-247.07-1303.21 657.26-2288.85 1707.7-2502.79zm-2205.34 2074.86c0 1425.97 1164.22 2608.41 2418.76 2608.41h248.99c1332.14 0 2489.91-1143.48 2489.91-2608.41 0-1315.05-1143.96-2525.48-2454.34-2525.48h-248.99c-1290.37 0-2454.33 1213.74-2454.33 2525.48z" fill="#2b2a29"/><path d="M179753.39 25069.19c305.7-55.1 1135.47-66.09 1288.55 118.95 101.77 123.02 118.2 416.52 31.17 568.68-160.36 280.36-1007.64 215.76-1319.72 185.94v-873.57zm1513.69 1051.28c160.93-116.62 347.93-269.29 347.93-592.75 0-588.75-261.72-901.05-895.24-901.05h-1440.58c-.42 497.4-23.03 2667.53 11.79 2987.89l459.96.04 2.2-1224.33c1980.76-134.42 1042.68 322.16 1430.93 1221.83l509.86 2.46c72.25-401.67-107.99 122.52-140.36-807.58-19.32-554.9-130.82-489.61-286.49-686.51z" fill="#1f1b20"/><path class="fil0" d="M137654.8 25632.29c-457.41 0-807.95-100.16-1051.77-300.32-243.82-200.31-365.73-488.95-365.73-866.36v-652.46c0-373.47 122.93-660.36 368.94-860.52 246.01-200.31 597.57-300.32 1055.13-300.32 280.47 0 522.1 40.44 724.89 121.18 202.79 80.88 356.09 192.57 459.46 335.07 103.65 142.34 151.1 304.11 142.49 485 0 80.89-25.99 121.33-77.67 121.33H138328c-47.44 0-71.24-30.81-71.24-92.42 0-123.22-52.85-218.41-158.56-285.86-105.7-67.31-249.22-101.04-430.4-101.04-224.4 0-391.72 51.98-501.65 155.93-110.09 103.95-165.13 267.62-165.13 490.85v519.75c0 219.44 54.02 381.21 161.92 485.16 107.74 103.95 273.89 155.92 498.43 155.92 185.57 0 329.96-34.6 433.62-103.95 103.51-69.35 155.34-161.76 155.34-277.25 0-57.67 23.66-86.58 71.1-86.58h582.54c51.83 0 77.67 21.17 77.67 63.51 8.76 308.06-101.32 550.56-329.96 727.66-228.78 177.1-560.92 265.72-996.88 265.72zm4737.95-69.35c-21.6 0-39.85-6.72-54.89-20.15-15.19-13.58-22.78-29.93-22.78-49.2v-456.25c0-223.23 58.26-419.6 174.76-588.95 116.51-169.51 257.84-312.88 423.98-430.26 166.15-117.53 378.72-249.37 637.58-395.66 289.08-161.62 502.82-300.32 640.79-415.8 138.11-115.49 207.17-248.35 207.17-398.43v-103.95c0-273.46-217.83-410.11-653.78-410.11-427.2 0-640.79 157.97-640.79 473.61 0 46.14-23.8 69.35-71.25 69.35h-588.96c-43.07 0-69.05-23.21-77.67-69.35-8.61-342.65 111.11-604.43 359.16-785.47 248.2-180.89 607.5-271.41 1077.76-271.41 906.21 0 1359.25 333.02 1359.25 999.07 0 227.17-52.85 422.67-158.56 586.18-105.7 163.67-236.22 299.45-391.57 407.19-155.34 107.75-353.9 227.18-595.52 357.99-198.56 107.9-354.93 200.31-469.24 277.25-114.32 77.09-210.39 167.46-288.06 271.42-77.67 103.95-116.51 223.37-116.51 358.13h1928.79c47.45 0 71.25 21.17 71.25 63.51v461.94c0 46.28-23.8 69.35-71.25 69.35h-2679.66zm5692.78 69.35c-496.25 0-878.18-119.43-1145.65-358.14-267.61-238.7-401.35-577.42-401.35-1016.44v-1172.37c0-438.87 133.74-777.59 401.35-1016.29 267.47-238.71 649.4-358.14 1145.65-358.14 496.25 0 878.18 119.43 1145.65 358.14 267.62 238.7 401.21 577.42 401.21 1016.29v1172.37c0 439.02-133.59 777.74-401.21 1016.44-267.47 238.71-649.4 358.14-1145.65 358.14zm0-594.95c250.24 0 443.4-66.28 579.18-199.14 136.07-132.86 203.96-320.61 203.96-563.12v-1206.97c0-242.65-67.89-430.25-203.96-563.11-135.78-132.86-328.94-199.29-579.18-199.29-250.24 0-443.4 66.43-579.32 199.29-135.92 132.86-203.96 320.46-203.96 563.11v1206.97c0 242.51 68.04 430.26 203.96 563.12 135.92 132.86 329.08 199.14 579.32 199.14zm4501.73 594.95c-496.25 0-878.19-119.43-1145.66-358.14-267.61-238.7-401.35-577.42-401.35-1016.44v-1172.37c0-438.87 133.74-777.59 401.35-1016.29 267.47-238.71 649.41-358.14 1145.66-358.14 496.24 0 878.18 119.43 1145.65 358.14 267.61 238.7 401.2 577.42 401.2 1016.29v1172.37c0 439.02-133.59 777.74-401.2 1016.44-267.47 238.71-649.41 358.14-1145.65 358.14zm0-594.95c250.24 0 443.39-66.28 579.17-199.14 136.07-132.86 203.96-320.61 203.96-563.12v-1206.97c0-242.65-67.89-430.25-203.96-563.11-135.78-132.86-328.93-199.29-579.17-199.29-250.25 0-443.4 66.43-579.33 199.29-135.92 132.86-203.96 320.46-203.96 563.11v1206.97c0 242.51 68.04 430.26 203.96 563.12 135.93 132.86 329.08 199.14 579.33 199.14zm4495.29-3326.43c513.48 0 901.84 114.61 1165.07 343.68 263.09 229.07 394.78 566.91 394.78 1013.52v1206.97c0 446.61-132.71 784.46-398.14 1013.53-265.27 229.07-659.03 343.68-1181.27 343.68-461.65 0-815.55-81.91-1061.41-245.43-246.01-163.66-368.94-403.39-368.94-719.04 0-19.27 7.45-35.62 22.48-49.05 15.19-13.58 33.58-20.3 55.19-20.3h582.54c21.6 0 39.85 6.72 55.04 20.3 15.04 13.43 22.48 29.78 22.48 49.05 0 107.75 60.59 199.29 181.33 274.33 120.74 75.05 289.08 112.57 504.87 112.57 271.85 0 475.81-59.72 611.58-179 136.08-119.42 203.96-302.21 203.96-548.66v-450.41c-345.14 227.18-709.84 340.62-1093.96 340.62-409.82 0-718.32-100.01-925.49-300.17-207.17-200.31-310.68-491-310.68-872.05 0-439.02 130.52-771.02 391.56-996.3 261.05-225.27 644-337.84 1149.01-337.84zm-97.23 1952c306.45 0 601.95-98.11 886.79-294.48v-375.36c0-223.38-69.05-397.55-207.02-522.67-138.12-125.13-336.67-187.76-595.68-187.76-250.09 0-439.01 57.82-566.32 173.3-127.32 115.49-190.97 282.95-190.97 502.38v179c0 165.56 60.59 294.62 181.33 387.04 120.74 92.42 284.7 138.55 491.87 138.55zm5146.01 1900.03c-47.45 0-71.24-23.07-71.24-69.35v-2702.73c0-46.13 23.79-69.35 71.24-69.35h1838.27c21.32 0 39.86 6.87 54.9 20.3s22.63 29.78 22.63 49.05v433.18c0 19.27-7.59 35.62-22.63 49.06-15.04 13.43-33.58 20.14-54.9 20.14h-1145.8v2200.35c0 19.27-7.59 35.62-22.63 49.2-15.18 13.43-33.57 20.15-54.89 20.15h-614.95zm4436.9 69.35c-466.03 0-820.95-98.26-1064.77-294.63-243.81-196.37-365.72-490.84-365.72-883.58v-623.71c0-388.79 123.07-682.39 368.94-880.66 246-198.27 599.9-297.4 1061.55-297.4 461.8 0 814.53 99.13 1058.35 297.4 243.81 198.27 365.72 491.87 365.72 880.66v623.71c0 392.74-120.88 687.21-362.66 883.58-241.48 196.37-595.38 294.63-1061.41 294.63zm0-583.27c228.78 0 395.95-52.99 501.65-158.84 105.71-105.85 158.56-272.44 158.56-499.61v-496.69c0-227.17-52.85-393.61-158.56-499.46-105.7-105.85-272.87-158.85-501.65-158.85-233.01 0-402.37 53-508.07 158.85-105.71 105.85-158.56 272.29-158.56 499.46v496.69c0 227.17 52.85 393.76 158.56 499.61 105.7 105.85 275.06 158.84 508.07 158.84zm5602.12-57.81c21.6 0 40 6.71 55.04 20.15 15.18 13.57 22.77 29.93 22.77 49.2v1143.46c0 19.27-7.59 35.62-22.77 49.05-15.04 13.44-33.44 20.15-55.04 20.15h-569.54c-21.61 0-40.01-6.71-55.05-20.15-15.03-13.43-22.77-29.78-22.77-49.05v-641.08h-1928.64v641.08c0 19.27-7.6 35.62-22.78 49.05-15.04 13.44-33.43 20.15-55.04 20.15h-569.54c-21.61 0-40.01-6.71-55.04-20.15-15.04-13.43-22.78-29.78-22.78-49.05v-1143.46c0-19.27 7.74-35.63 22.78-49.2 15.03-13.44 33.43-20.15 55.04-20.15h265.42c43.22-27.01 76.51-76.07 100.3-147.31 23.66-71.25 42.05-181.92 54.9-332.01l148.92-1721.03c4.23-46.13 32.41-69.35 84.09-69.35h2187.79c51.98 0 77.82 23.22 77.82 69.35v2200.35h304.12zm-2058.29-577.57c-17.23 231.11-69.06 423.54-155.35 577.57h1145.66v-1697.97h-886.8l-103.51 1120.4zm5776.87 1085.79c0 42.34-23.94 63.51-71.39 63.51h-537.13c-43.07 0-71.25-24.97-84.1-75.04-17.22-88.63-36.64-209.8-58.25-363.83-189.8 173.15-369.08 301.19-537.27 383.97-168.34 82.78-353.9 124.25-556.7 124.25-258.85 0-457.26-69.35-595.38-207.9-138.11-138.7-207.17-336.97-207.17-594.95 0-200.16 43.21-362.8 129.35-487.93 86.43-125.12 226.74-222.35 420.77-291.7 194.18-69.2 457.56-117.38 789.71-144.39l505.01-40.3V23634c0-165.56-36.94-281.04-110.23-346.45-73.29-65.41-200.6-98.26-381.93-98.26-323.39 0-483.11 106-478.88 317.7 0 46.28-23.8 69.35-71.25 69.35h-582.53c-34.46 0-58.25-13.58-71.1-40.45-13-27.01-19.57-73.14-19.57-138.7 0-234.76 111.11-417.7 333.32-548.51 222.21-130.96 529.68-196.37 922.42-196.37 418.58 0 727.22 79.86 925.78 239.58 198.41 159.87 297.54 410.99 297.54 753.65v1201.28c0 246.44 12.99 460.04 38.98 641.08v11.53zm-1585.98-404.27c116.51 0 235.35-30.81 356.09-92.42 120.74-61.61 263.38-165.56 427.34-311.85v-409.97l-440.19 34.61c-250.39 19.27-423.1 61.61-518 127.02-94.9 65.4-142.35 171.4-142.35 317.69 0 115.48 25.84 200.16 77.82 254.04 51.68 53.87 131.54 80.88 239.29 80.88z"/></g></g></svg>