<svg width="12" height="12" fill="none" xmlns="http://www.w3.org/2000/svg"><path d="M11.572 0a.428.428 0 00-.191.045L8.133 1.67 4.461.037 4.44.031a.428.428 0 00-.1-.026.638.638 0 00-.105 0 .445.445 0 00-.102.026l-.02.006L.257 1.751A.428.428 0 000 2.143v9.428a.429.429 0 00.603.392l3.683-1.637 3.683 1.637c.006.003.013 0 .02.004a.378.378 0 00.324-.007c.007-.003.014 0 .021-.005l3.429-1.714A.429.429 0 0012 9.857V.43a.429.429 0 00-.428-.43zM3.858 9.579l-3 1.333v-8.49l3-1.334v8.49zm3.857 1.333l-3-1.333v-8.49l3 1.333v8.49zm3.429-1.32l-2.572 1.286v-8.47l2.572-1.286v8.47z" fill="#D32F2F"/></svg>