<svg width="40" height="40" fill="none" xmlns="http://www.w3.org/2000/svg"><path d="M36.484 6.406h-2.812V1.172C33.672.524 33.147 0 32.5 0h-8.594A5.07 5.07 0 0020 1.837 5.07 5.07 0 0016.094 0H7.5c-.647 0-1.172.524-1.172 1.172v5.234H3.516A3.52 3.52 0 000 9.922v19.531a3.52 3.52 0 003.516 3.516h11.733l-1.562 4.687H9.063a1.172 1.172 0 100 2.344h21.874a1.172 1.172 0 100-2.344h-4.624l-1.562-4.687h11.733A3.52 3.52 0 0040 29.453V9.922a3.52 3.52 0 00-3.516-3.516zM23.906 2.344h7.422v14.844h-8.203c-.703 0-1.367.17-1.953.47V5.077a2.738 2.738 0 012.734-2.734zm-15.234 0h7.422a2.738 2.738 0 012.734 2.734v12.58c-.586-.3-1.25-.47-1.953-.47H8.672V2.344zM3.516 8.75h2.812v9.61c0 .647.525 1.171 1.172 1.171h9.375c1.077 0 1.953.876 1.953 1.953a1.172 1.172 0 102.344 0c0-1.077.876-1.953 1.953-1.953H32.5c.647 0 1.172-.524 1.172-1.172V8.75h2.812c.646 0 1.172.526 1.172 1.172v15.234H2.344V9.922c0-.646.525-1.172 1.172-1.172zm20.327 28.906h-7.686l1.563-4.687h4.56l1.563 4.687zm12.641-7.031H3.516a1.173 1.173 0 01-1.172-1.172V27.5h35.312v1.953c0 .646-.526 1.172-1.172 1.172z" fill="#fff"/></svg>