<svg width="50" height="35" fill="none" xmlns="http://www.w3.org/2000/svg"><path d="M5.853 30.213h4.33l.05.185c.715 2.71 3.145 4.602 5.91 4.602 2.764 0 5.194-1.892 5.91-4.602l.048-.185h9.829l.049.185c.715 2.71 3.145 4.602 5.91 4.602 2.764 0 5.194-1.892 5.91-4.602l.048-.185h4.808c.742 0 1.345-.612 1.345-1.364V18.361c0-.302-.1-.599-.282-.837l-3.152-4.116.05-.026-4.662-9.404c-.23-.463-.69-.75-1.201-.75h-7.036V1.363C33.717.612 33.114 0 32.372 0H5.852c-.74 0-1.344.612-1.344 1.364 0 .751.603 1.363 1.345 1.363h25.175v11.546c0 .752.603 1.363 1.344 1.363h12.496l2.443 3.192v8.658h-3.44l-.046-.19c-.68-2.77-3.122-4.705-5.937-4.705-2.814 0-5.255 1.935-5.936 4.705l-.047.19h-9.78l-.046-.19c-.68-2.77-3.122-4.705-5.937-4.705-2.814 0-5.255 1.935-5.936 4.705l-.046.19H5.852c-.742 0-1.345.611-1.345 1.363s.603 1.364 1.345 1.364zm27.864-17.304V5.954h6.206l3.448 6.955h-9.654zm4.172 12.41c1.89 0 3.428 1.56 3.428 3.477 0 1.917-1.538 3.477-3.428 3.477-1.891 0-3.43-1.56-3.43-3.478 0-1.917 1.539-3.477 3.43-3.477zm-21.747 0c1.891 0 3.43 1.56 3.43 3.477 0 1.917-1.539 3.477-3.43 3.477-1.89 0-3.428-1.56-3.428-3.478 0-1.917 1.538-3.477 3.428-3.477z" fill="#fff"/><path d="M11.263 19.31h-7.32c-.741 0-1.344.612-1.344 1.364 0 .751.603 1.363 1.344 1.363h7.32c.741 0 1.345-.612 1.345-1.363 0-.752-.604-1.364-1.345-1.364zm3.66-6.347H1.345c-.742 0-1.345.612-1.345 1.364 0 .751.603 1.363 1.345 1.363h13.578c.741 0 1.344-.612 1.344-1.364 0-.751-.603-1.363-1.344-1.363zm2.598-6.347H3.944c-.741 0-1.344.612-1.344 1.364 0 .751.603 1.363 1.344 1.363h13.578c.742 0 1.345-.612 1.345-1.363 0-.752-.603-1.364-1.345-1.364z" fill="#fff"/></svg>