<svg width="38" height="38" fill="none" xmlns="http://www.w3.org/2000/svg"><path d="M36.986 36.34a4.48 4.48 0 01-3.49 1.66h-6.703a1.484 1.484 0 010-2.969h6.703c.633 0 1.015-.353 1.187-.564a1.55 1.55 0 00.314-1.3 1.484 1.484 0 112.907-.606 4.508 4.508 0 01-.918 3.779zm-13.642-3.187a1.485 1.485 0 01-.4 1.369l-2.968 2.969a1.485 1.485 0 01-2.1 0l-2.969-2.97a1.485 1.485 0 01-.4-1.368l2.834-12.892c-6.992.719-12.885 5.924-14.338 12.905a1.55 1.55 0 00.314 1.3c.171.212.554.565 1.187.565h6.48a1.484 1.484 0 010 2.969h-6.48a4.48 4.48 0 01-3.49-1.66 4.508 4.508 0 01-.918-3.779 19.368 19.368 0 016.645-10.965 19.29 19.29 0 016.22-3.419 10.084 10.084 0 01-4.055-8.083C8.906 4.528 13.434 0 19 0s10.094 4.528 10.094 10.094c0 3.301-1.593 6.237-4.051 8.08a19.307 19.307 0 0110.005 7.6 1.484 1.484 0 01-2.465 1.654 16.33 16.33 0 00-12.076-7.183l2.837 12.909zM18.653 17.21a19.13 19.13 0 01.7 0c3.766-.185 6.772-3.306 6.772-7.116A7.133 7.133 0 0019 2.969a7.133 7.133 0 00-7.125 7.125c0 3.812 3.01 6.935 6.778 7.116zm1.617 15.787l-1.344-6.117-1.345 6.117 1.345 1.345 1.344-1.345z" fill="#fff"/></svg>