<svg width="39" height="40" fill="none" xmlns="http://www.w3.org/2000/svg"><g clip-path="url(#clip0)" fill="#D32F2F"><path d="M37.12 20.518a1.156 1.156 0 010-1.036l1.516-3.052c.843-1.7.175-3.725-1.523-4.611l-3.049-1.592a1.174 1.174 0 01-.619-.838l-.596-3.346c-.332-1.863-2.083-3.115-3.986-2.85l-3.418.475a1.203 1.203 0 01-1-.32L21.962.986a3.569 3.569 0 00-4.926 0l-2.481 2.362a1.204 1.204 0 01-1.001.32l-3.418-.475c-1.903-.265-3.654.987-3.986 2.85l-.596 3.345c-.065.361-.29.667-.619.839l-3.05 1.592C.19 12.705-.478 14.73.366 16.43l1.515 3.052c.164.33.164.707 0 1.036L.364 23.57c-.844 1.7-.175 3.725 1.523 4.611l3.049 1.592c.329.172.554.478.619.838l.596 3.347c.303 1.695 1.78 2.885 3.478 2.885.168 0 .337-.012.508-.036l3.418-.475a1.2 1.2 0 011.001.32l2.48 2.362a3.567 3.567 0 004.927 0l2.481-2.362a1.204 1.204 0 011.002-.32l3.417.475c1.904.265 3.654-.987 3.986-2.85l.596-3.345c.065-.361.29-.667.619-.839l3.05-1.592c1.697-.886 2.366-2.912 1.522-4.611l-1.516-3.052zm-2.106 1.013l1.515 3.052c.286.575.06 1.26-.515 1.56l-3.049 1.592a3.469 3.469 0 00-1.829 2.478l-.596 3.346a1.191 1.191 0 01-1.348.964l-3.418-.476a3.555 3.555 0 00-2.96.947l-2.48 2.361c-.468.445-1.2.445-1.667 0l-2.481-2.361a3.547 3.547 0 00-2.96-.947l-3.417.476a1.192 1.192 0 01-1.349-.964l-.596-3.346a3.469 3.469 0 00-1.83-2.478l-3.048-1.592a1.166 1.166 0 01-.516-1.56l1.516-3.052a3.415 3.415 0 000-3.062L2.47 15.417a1.166 1.166 0 01.516-1.56l3.049-1.592a3.47 3.47 0 001.829-2.478l.596-3.346a1.191 1.191 0 011.349-.964l3.417.476a3.556 3.556 0 002.96-.947l2.48-2.361a1.208 1.208 0 011.667 0l2.481 2.361a3.556 3.556 0 002.96.947l3.417-.476a1.192 1.192 0 011.349.964l.596 3.346a3.469 3.469 0 001.83 2.478l3.048 1.592c.575.3.801.985.515 1.56l-1.515 3.052a3.415 3.415 0 000 3.062z"/><path d="M28.064 11.572a1.184 1.184 0 00-1.657 0L10.936 26.797a1.14 1.14 0 000 1.631c.229.226.529.338.829.338.3 0 .6-.112.828-.337l15.471-15.226a1.14 1.14 0 000-1.631zm-13.252 6.506c2.37 0 4.297-1.898 4.297-4.23 0-2.332-1.928-4.23-4.298-4.23s-4.297 1.898-4.297 4.23c0 2.332 1.928 4.23 4.298 4.23zm0-6.153c1.077 0 1.953.863 1.953 1.923s-.876 1.922-1.954 1.922c-1.077 0-1.953-.862-1.953-1.922s.876-1.923 1.954-1.923zm9.376 9.998c-2.37 0-4.297 1.897-4.297 4.23 0 2.331 1.928 4.229 4.297 4.229 2.37 0 4.298-1.898 4.298-4.23 0-2.332-1.928-4.23-4.298-4.23zm0 6.152c-1.077 0-1.953-.863-1.953-1.923s.876-1.922 1.953-1.922c1.078 0 1.954.862 1.954 1.922s-.877 1.923-1.954 1.923z"/></g><defs><clipPath id="clip0"><path fill="#fff" d="M0 0h39v40H0z"/></clipPath></defs></svg>