<svg width="40" height="40" fill="none" xmlns="http://www.w3.org/2000/svg"><path d="M.398 16.889l5.447-4.802V6.588c0-.649.527-1.176 1.176-1.176h6.396L19.222.294a1.176 1.176 0 011.556 0l5.805 5.118h6.396c.65 0 1.176.527 1.176 1.176v5.5l5.447 4.8c.24.241.398.485.398.883v21.053C40 39.46 39.484 40 38.824 40H1.176A1.177 1.177 0 010 38.824V17.77c0-.385.16-.644.398-.882zm1.955 19.207l10.067-9.5-10.067-6.64v16.14zm34.538-18.46l-2.736-2.412v4.216c1.552-1.022 1.907-1.257 2.736-1.804zm-5.089-9.87H8.198v13.226L20 28.776l11.802-7.784V7.765zM20 2.745l-3.025 2.666h6.05L20 2.745zM3.11 17.635c.815.538 1.21.8 2.735 1.804v-4.216l-2.736 2.412zm34.537 2.32l-10.067 6.64 10.067 9.5v-16.14zm-12.085 7.97l-4.914 3.241c-.395.26-.901.26-1.296 0l-4.914-3.24-10.3 9.72h31.725l-10.301-9.72z" fill="#D32F2F"/></svg>