<svg width="12" height="13" fill="none" xmlns="http://www.w3.org/2000/svg"><path d="M7.58 12.77H2.301c-1.22 0-2.21-.895-2.21-1.995v-6.76c0-1.1.99-1.995 2.21-1.995h5.277c1.219 0 2.21.895 2.21 1.996v6.759c0 1.1-.991 1.995-2.21 1.995zM2.301 3.018c-.61 0-1.106.448-1.106.998v6.759c0 .55.496.998 1.106.998h5.277c.61 0 1.105-.448 1.105-.998v-6.76c0-.55-.496-.997-1.105-.997H2.302zM12 9.528V1.995C12 .895 11.008 0 9.79 0H3.656c-.306 0-.553.223-.553.499 0 .275.247.499.553.499H9.79c.609 0 1.105.447 1.105.997v7.533c0 .275.247.499.552.499.306 0 .553-.224.553-.5z" fill="#D32F2F"/></svg>