<svg width="14" height="14" fill="none" xmlns="http://www.w3.org/2000/svg"><path d="M0 9.46a.41.41 0 00.192.349l6.59 4.128a.41.41 0 00.436 0l6.59-4.128a.41.41 0 00-.003-.697l-1.423-.877 1.425-.887a.41.41 0 00-.002-.697l-1.423-.877 1.425-.887a.41.41 0 000-.696L7.218.063a.41.41 0 00-.435 0L.192 4.19a.41.41 0 00.001.696l1.415.88-1.415.885a.41.41 0 000 .696l1.415.88-1.415.885A.41.41 0 000 9.461zM7 .895l5.816 3.644L7 8.158l-5.815-3.62L7 .894zM2.383 6.25l4.4 2.739a.41.41 0 00.434 0l4.387-2.731 1.207.744L7 10.618 1.185 7l1.198-.749zm0 2.461l4.4 2.739a.41.41 0 00.434 0l4.387-2.731 1.209.745L7 13.106 1.183 9.46l1.2-.75z" fill="#D32F2F"/></svg>