<svg width="14" height="14" fill="none" xmlns="http://www.w3.org/2000/svg"><path d="M13.974 9.343v-7.04A2.303 2.303 0 0011.676 0a2.303 2.303 0 00-2.299 2.303v7.04a.417.417 0 00.036.176l1.631 3.66H1.233a.415.415 0 01-.414-.42c0-.23.186-.415.414-.415h4.816a1.235 1.235 0 000-2.47H3.482a.41.41 0 000 .82h2.567a.415.415 0 010 .83H1.233c-.67 0-1.233.54-1.233 1.241C0 13.446.553 14 1.233 14h10.443c.17 0 .312-.1.377-.25l1.886-4.231a.419.419 0 00.035-.176zm-1.436 1.307h-1.724l-.396-.888h2.516l-.396.888zm-.862 1.934l-.497-1.113h.993l-.496 1.113zm-.41-9.54v5.897h-1.07V3.044h1.07zm1.89 0v5.897h-1.07V3.044h1.07zM11.675.82c.79 0 1.436.623 1.477 1.404h-2.955A1.483 1.483 0 0111.676.82z" fill="#D32F2F"/></svg>