<svg width="16" height="12" fill="none" xmlns="http://www.w3.org/2000/svg"><path d="M12.248.877h-.588V0H0v7.741C0 10.09 2.043 12 4.555 12h2.55c2.457 0 4.465-1.829 4.551-4.107h.592C14.317 7.893 16 6.32 16 4.385S14.317.877 12.248.877zm-.588 2.63h.588c.518 0 .94.394.94.878 0 .485-.422.879-.94.879h-.588V3.507zm-.938 4.234c0 1.865-1.623 3.383-3.618 3.383H4.555C2.56 11.123.938 9.605.938 7.74V.877h9.784V7.74zm1.526-.724h-.588V6.14h.588c1.035 0 1.877-.787 1.877-1.755 0-.967-.842-1.755-1.877-1.755h-.588v-.876h.588c1.552 0 2.814 1.18 2.814 2.631 0 1.451-1.262 2.632-2.814 2.632z" fill="#D32F2F"/></svg>