<svg width="16" height="13" fill="none" xmlns="http://www.w3.org/2000/svg"><path d="M15.767.604a1.243 1.243 0 00-.815-.56 1.167 1.167 0 00-.939.235 1.388 1.388 0 00-.511.89l-.052.319a32.062 32.062 0 00-10.897-.003l-.055-.34C2.381.396 1.731-.108 1.048.018.364.146-.098.86.018 1.607l1.957 10.732c.058.372.354.636.688.636a.641.641 0 00.117-.01l1.104-.205c.38-.07.636-.466.572-.881L3.568 8.05a31.073 31.073 0 018.867-.001l-.89 3.854a.815.815 0 00.118.57.69.69 0 00.453.311l1.104.205a.641.641 0 00.52-.13.77.77 0 00.285-.495L15.982 1.63a1.469 1.469 0 00-.215-1.027zm-1.21.512a.296.296 0 01.238-.06.316.316 0 01.207.143c.05.076.07.169.055.26l-.049.315-.632-.117.05-.314a.353.353 0 01.13-.227zm-13.614.32c-.03-.191.088-.372.262-.404.173-.032.339.096.368.286l.055.336-.633.117-.052-.336zM3.49 11.79l-.63.117-.851-3.594c.21-.04.42-.08.63-.116l.851 3.593zM1.856 7.3l-.704-4.518 1.128-.209a31.221 31.221 0 0111.428 0l1.13.21-.686 4.516A32.005 32.005 0 001.856 7.3zm11.284 4.632l-.63-.117.854-3.619c.21.037.42.075.63.116l-.854 3.62z" fill="#D32F2F"/></svg>