<svg width="12" height="12" fill="none" xmlns="http://www.w3.org/2000/svg"><g clip-path="url(#clip0)" fill="#000"><path d="M1.435 2.87h1.252l.691-1.044A1.438 1.438 0 014.565 1.2h2.87c.47 0 .926.235 1.187.626l.691 1.044h1.252A1.43 1.43 0 0112 4.304v5.061a1.43 1.43 0 01-1.435 1.435h-9.13A1.43 1.43 0 010 9.365v-5.06C0 3.508.64 2.87 1.435 2.87zM6 9.626a3.234 3.234 0 003.235-3.235A3.223 3.223 0 006 3.17a3.234 3.234 0 00-3.235 3.234A3.231 3.231 0 006 9.626zM1.617 4.891h.574a.423.423 0 000-.848H1.67a.423.423 0 00-.444.405.413.413 0 00.391.443z"/><path d="M6 4.604c.991 0 1.8.809 1.8 1.8 0 .992-.809 1.787-1.8 1.787s-1.8-.808-1.8-1.8c0-.991.809-1.787 1.8-1.787z"/></g><defs><clipPath id="clip0"><path fill="#fff" transform="matrix(-1 0 0 1 12 0)" d="M0 0h12v12H0z"/></clipPath></defs></svg>