<svg width="21" height="21" fill="none" xmlns="http://www.w3.org/2000/svg"><g clip-path="url(#clip0)"><path d="M8.695 7.506a.82.82 0 110 1.64.82.82 0 010-1.64zm2.461.82a.82.82 0 101.64 0 .82.82 0 00-1.64 0zm3.281 0a.82.82 0 101.641 0 .82.82 0 00-1.64 0zm6.503 8.511a.82.82 0 01-1.091 1.058l-4.401-1.94a9.439 9.439 0 01-1.704.474 7.062 7.062 0 01-2.482 2.416 7.765 7.765 0 01-3.86 1.047l-.06.003a7.807 7.807 0 01-2.736-.488L1.15 20.93a.82.82 0 01-1.09-1.058l1.198-2.964A6.364 6.364 0 010 13.105c0-2.2 1.142-4.245 3.068-5.52.177-1.961 1.093-3.78 2.624-5.182C7.386.853 9.632 0 12.018 0c2.385 0 4.632.853 6.325 2.403C20.056 3.971 21 6.063 21 8.291c0 .368-.032.788-.091 1.182a.82.82 0 11-1.623-.242c.047-.312.073-.654.073-.94 0-3.667-3.293-6.65-7.341-6.65-4.049 0-7.342 2.983-7.342 6.65 0 3.211 2.95 6.65 7.342 6.65a7.91 7.91 0 003.122-.63.82.82 0 01.653.003l2.869 1.265-.966-2.39a.82.82 0 011.521-.615l1.723 4.263zm-9.389-.267c-2.272-.106-4.376-.994-5.967-2.525-1.28-1.23-2.127-2.797-2.427-4.434-.965.941-1.516 2.184-1.516 3.494 0 1.146.408 2.23 1.18 3.137a.82.82 0 01.137.84l-.62 1.532 1.921-.847a.82.82 0 01.653-.003c.753.32 1.559.485 2.397.49l.033-.002c1.616 0 3.143-.631 4.21-1.682z" fill="#D32F2F"/></g><defs><clipPath id="clip0"><path fill="#fff" d="M0 0h21v21H0z"/></clipPath></defs></svg>