<svg width="18" height="18" fill="none" xmlns="http://www.w3.org/2000/svg"><path d="M17.52 17.214c-.407.5-1.01.786-1.654.786h-3.175a.703.703 0 010-1.406h3.175c.3 0 .482-.168.563-.268a.734.734 0 00.149-.616.703.703 0 111.376-.286 2.135 2.135 0 01-.434 1.79zm-6.462-1.51a.703.703 0 01-.19.648L9.462 17.76a.703.703 0 01-.994 0L7.06 16.352a.703.703 0 01-.19-.648l1.343-6.107c-3.312.34-6.103 2.806-6.792 6.113a.735.735 0 00.15.616c.08.1.261.268.562.268h3.07a.703.703 0 110 1.406h-3.07a2.135 2.135 0 01-2.088-2.576A9.138 9.138 0 016.14 8.61a4.777 4.777 0 01-1.921-3.83A4.787 4.787 0 019 0a4.787 4.787 0 014.781 4.781 4.777 4.777 0 01-1.919 3.828 9.145 9.145 0 014.74 3.6.703.703 0 11-1.168.783 7.735 7.735 0 00-5.72-3.402l1.344 6.114zM8.835 8.152a9.106 9.106 0 01.333 0 3.38 3.38 0 003.207-3.37A3.379 3.379 0 009 1.405 3.379 3.379 0 005.625 4.78a3.38 3.38 0 003.21 3.371zm.767 7.478l-.637-2.898-.637 2.898.637.637.637-.637z" fill="#D32F2F"/></svg>