<svg width="25" height="18" fill="none" xmlns="http://www.w3.org/2000/svg"><g clip-path="url(#clip0)" fill="#D32F2F"><path d="M2.926 15.106h2.166l.024.093C5.474 16.554 6.69 17.5 8.071 17.5a3.07 3.07 0 002.955-2.3l.025-.094h4.914l.024.093c.358 1.355 1.573 2.301 2.955 2.301a3.07 3.07 0 002.955-2.3l.025-.094h2.404c.37 0 .672-.305.672-.681V9.18c0-.15-.05-.299-.141-.418l-1.576-2.058.025-.013-2.33-4.702a.669.669 0 00-.602-.375h-3.518V.682A.678.678 0 0016.186 0H2.926a.678.678 0 00-.672.682c0 .376.302.682.672.682h12.588v5.772c0 .376.302.682.672.682h6.248l1.221 1.596v4.329h-1.72l-.022-.095a3.063 3.063 0 00-2.969-2.352 3.063 3.063 0 00-2.968 2.352l-.023.095h-4.89l-.024-.095a3.063 3.063 0 00-2.968-2.352 3.063 3.063 0 00-2.968 2.352l-.023.095H2.926a.678.678 0 00-.672.682c0 .376.302.681.672.681zM16.86 6.455V2.977h3.103l1.724 3.478h-4.828zm2.085 6.204c.946 0 1.715.78 1.715 1.739 0 .959-.77 1.738-1.715 1.738-.945 0-1.714-.78-1.714-1.738 0-.959.769-1.739 1.714-1.739zm-10.873 0c.946 0 1.715.78 1.715 1.739 0 .959-.77 1.738-1.715 1.738-.945 0-1.714-.78-1.714-1.738 0-.959.769-1.739 1.714-1.739z"/><path d="M5.632 9.655h-3.66a.678.678 0 00-.672.682c0 .376.301.682.672.682h3.66c.37 0 .672-.306.672-.682a.678.678 0 00-.672-.682zm1.829-3.174H.672A.678.678 0 000 7.163c0 .376.302.682.672.682h6.79c.37 0 .672-.306.672-.682a.678.678 0 00-.673-.682zM8.76 3.308H1.973a.678.678 0 00-.672.682c0 .376.301.682.672.682H8.76c.37 0 .672-.306.672-.682a.678.678 0 00-.672-.682z"/></g><defs><clipPath id="clip0"><path fill="#fff" d="M0 0h25v17.5H0z"/></clipPath></defs></svg>