<svg width="20" height="20" fill="none" xmlns="http://www.w3.org/2000/svg"><path d="M.2 8.444l2.722-2.4v-2.75a.59.59 0 01.589-.588h3.198L9.61.147a.588.588 0 01.778 0l2.902 2.56h3.198c.325 0 .589.263.589.587v2.75l2.723 2.4c.12.12.199.243.199.442v10.526a.59.59 0 01-.588.588H.588A.588.588 0 010 19.412V8.886c0-.193.08-.323.2-.442zm.977 9.604l5.033-4.75-5.033-3.32v8.07zm17.268-9.23l-1.367-1.206V9.72l1.367-.902zm-2.544-4.935H4.1v6.613l5.9 3.892 5.901-3.892V3.883zM10 1.373L8.488 2.706h3.024L10 1.373zM1.555 8.818l1.367.902V7.612L1.555 8.818zm17.268 1.16l-5.033 3.32 5.033 4.75v-8.07zm-6.042 3.986l-2.457 1.62a.588.588 0 01-.648 0l-2.457-1.62-5.15 4.86H17.93l-5.15-4.86z" fill="#D32F2F"/></svg>