<svg width="20" height="20" fill="none" xmlns="http://www.w3.org/2000/svg"><g clip-path="url(#clip0)" fill="#D32F2F"><path d="M18.56 10.26a.578.578 0 010-.519l.758-1.526a1.723 1.723 0 00-.761-2.306l-1.525-.796a.587.587 0 01-.31-.419l-.298-1.673a1.76 1.76 0 00-1.992-1.425l-1.71.238a.602.602 0 01-.5-.16l-1.24-1.18a1.785 1.785 0 00-2.464 0l-1.24 1.18a.602.602 0 01-.5.16l-1.71-.238a1.76 1.76 0 00-1.992 1.425l-.299 1.673a.587.587 0 01-.309.42l-1.525.795a1.723 1.723 0 00-.76 2.306L.94 9.741a.578.578 0 010 .518l-.758 1.526a1.723 1.723 0 00.761 2.306l1.525.796a.587.587 0 01.31.419l.298 1.673c.15.848.89 1.442 1.739 1.442.083 0 .168-.005.253-.017l1.71-.238a.602.602 0 01.5.16l1.24 1.18a1.78 1.78 0 002.464 0l1.24-1.18a.602.602 0 01.5-.16l1.71.238a1.76 1.76 0 001.992-1.425l.299-1.673a.587.587 0 01.309-.42l1.525-.795a1.723 1.723 0 00.76-2.306l-.757-1.526zm-1.053.506l.758 1.526c.142.287.03.63-.258.78l-1.524.796c-.486.253-.82.705-.915 1.239l-.298 1.672a.596.596 0 01-.674.483l-1.71-.238a1.777 1.777 0 00-1.479.473l-1.24 1.18a.604.604 0 01-.834 0l-1.24-1.18a1.773 1.773 0 00-1.48-.473l-1.709.238a.596.596 0 01-.674-.483l-.298-1.673a1.734 1.734 0 00-.915-1.238l-1.524-.796a.583.583 0 01-.258-.78l.758-1.526a1.708 1.708 0 000-1.532l-.758-1.526a.583.583 0 01.258-.78l1.524-.796c.486-.253.82-.705.915-1.238L4.23 3.22a.596.596 0 01.674-.482l1.71.237a1.778 1.778 0 001.479-.473l1.24-1.18a.604.604 0 01.834 0l1.24 1.18c.396.377.935.55 1.48.473l1.709-.237a.596.596 0 01.674.482l.298 1.673c.095.533.428.985.915 1.238l1.524.796c.287.15.4.493.258.78l-.758 1.526a1.708 1.708 0 000 1.532z"/><path d="M14.032 5.786a.593.593 0 00-.829 0l-7.735 7.613a.57.57 0 000 .815.589.589 0 00.829 0l7.735-7.613a.57.57 0 000-.815zM7.406 9.039c1.185 0 2.149-.949 2.149-2.115 0-1.166-.964-2.115-2.15-2.115-1.184 0-2.148.949-2.148 2.115 0 1.166.964 2.115 2.149 2.115zm0-3.076a.97.97 0 01.976.961.97.97 0 01-.976.961.97.97 0 01-.977-.961.97.97 0 01.977-.961zm4.688 4.998c-1.185 0-2.149.949-2.149 2.115 0 1.166.964 2.115 2.15 2.115 1.184 0 2.148-.949 2.148-2.115 0-1.166-.964-2.115-2.149-2.115zm0 3.076a.97.97 0 01-.977-.96.97.97 0 01.977-.962.97.97 0 01.977.961.97.97 0 01-.977.961z"/></g><defs><clipPath id="clip0"><path fill="#fff" d="M0 0h19.5v20H0z"/></clipPath></defs></svg>