<svg width="25" height="23" fill="none" xmlns="http://www.w3.org/2000/svg"><path d="M23.035 0H6.377C5.293 0 4.412.862 4.412 1.92v6.705H1.965C.881 8.625 0 9.487 0 10.545V21.08C0 22.14.881 23 1.965 23h16.658c1.084 0 1.965-.862 1.965-1.92v-6.705h2.447c1.084 0 1.965-.862 1.965-1.92V1.92C25 .86 24.119 0 23.035 0zM6.377 1.438h16.658a.49.49 0 01.494.483v.954H5.882v-.954a.49.49 0 01.495-.483zm17.152 2.875V5.75H5.882V4.313H23.53zm-4.411 16.766a.49.49 0 01-.495.483H1.965a.49.49 0 01-.494-.483V10.546a.49.49 0 01.494-.484h16.658a.49.49 0 01.495.484v10.533zm3.917-8.141h-2.447v-2.392c0-1.06-.881-1.92-1.965-1.92H5.883v-1.44h17.646v5.267a.49.49 0 01-.494.484z" fill="#fff"/><path d="M7.598 14.263c0-.731-.608-1.325-1.356-1.325H4.297c-.748 0-1.356.594-1.356 1.325v1.662c0 .73.608 1.325 1.356 1.325h1.945c.748 0 1.356-.595 1.356-1.325v-1.662zm-1.47 1.55H4.411v-1.438h1.715v1.438zm-.246 2.874h-2.94v1.438h2.94v-1.438zm4.412 0H7.353v1.438h2.941v-1.438zm4.412 0h-2.941v1.438h2.94v-1.438zm2.941 0h-1.47v1.438h1.47v-1.438z" fill="#fff"/></svg>