<svg width="20" height="20" fill="none" xmlns="http://www.w3.org/2000/svg"><path d="M19.414 4.138A.586.586 0 0020 3.552V.586A.586.586 0 0019.414 0h-2.966a.586.586 0 00-.586.586v.897H4.138V.586A.586.586 0 003.552 0H.586A.586.586 0 000 .586v2.966c0 .323.262.586.586.586h.897v11.724H.586a.586.586 0 00-.586.586v2.966c0 .324.262.586.586.586h2.966a.586.586 0 00.586-.586v-.897h11.724v.897c0 .324.263.586.586.586h2.966a.586.586 0 00.586-.586v-2.966a.586.586 0 00-.586-.586h-.897V4.138h.897zm-2.38-2.966h1.794v1.794h-1.794V1.172zm-15.862 0h1.794v1.794H1.172V1.172zm1.794 17.656H1.172v-1.794h1.794v1.794zm15.862 0h-1.794v-1.794h1.794v1.794zm-1.483-2.966h-.897a.586.586 0 00-.586.586v.897H4.138v-.897a.586.586 0 00-.586-.586h-.897V4.138h.897a.586.586 0 00.586-.586v-.897h11.724v.897c0 .323.263.586.586.586h.897v11.724z" fill="#D32F2F"/><path d="M14.2 5.358H5.8a.586.586 0 00-.585.586v2.13a.586.586 0 001.172 0V6.53h3.027v7.018H8.322a.586.586 0 100 1.172h3.356a.586.586 0 100-1.172h-1.092V6.53h3.027v1.545a.586.586 0 101.172 0V5.944a.586.586 0 00-.586-.586z" fill="#D32F2F"/></svg>