<svg width="13" height="13" fill="none" xmlns="http://www.w3.org/2000/svg"><g clip-path="url(#clip0)" fill="#D32F2F"><path d="M7.312 3.255H5.416a.533.533 0 00-.533.533v2.179h-.551a.533.533 0 100 1.066h.55v.559h-.55a.533.533 0 100 1.066h.55v.551a.533.533 0 101.067 0v-.55H7.04a.533.533 0 100-1.067H5.949v-.559h1.363c1.041 0 1.89-.848 1.89-1.889a1.89 1.89 0 00-1.89-1.889zm0 2.712H5.95V4.324h1.363c.452 0 .823.368.823.823a.82.82 0 01-.823.82z"/><path d="M11.121 1.93A6.449 6.449 0 006.525.025 6.45 6.45 0 001.93 1.93 6.449 6.449 0 00.025 6.525c0 1.737.676 3.37 1.905 4.596a6.453 6.453 0 004.595 1.904 6.507 6.507 0 003.365-.937.508.508 0 10-.528-.868 5.484 5.484 0 112.648-4.695 5.478 5.478 0 01-.93 3.045.507.507 0 10.843.563 6.468 6.468 0 001.102-3.608 6.447 6.447 0 00-1.904-4.595z"/></g><defs><clipPath id="clip0"><path fill="#fff" d="M0 0h13v13H0z"/></clipPath></defs></svg>