<svg width="13" height="13" fill="none" xmlns="http://www.w3.org/2000/svg"><g opacity=".4" fill="#000"><path d="M11.096 1.904A6.458 6.458 0 006.5 0a6.458 6.458 0 00-4.596 1.904A6.458 6.458 0 000 6.5c0 1.736.676 3.368 1.904 4.596A6.457 6.457 0 006.5 13a6.49 6.49 0 003.363-.937.508.508 0 00-.526-.868 5.474 5.474 0 01-2.837.79A5.49 5.49 0 011.016 6.5 5.49 5.49 0 016.5 1.016 5.49 5.49 0 0111.984 6.5a5.462 5.462 0 01-.93 3.044.508.508 0 00.845.564A6.474 6.474 0 0013 6.5a6.457 6.457 0 00-1.904-4.596z"/><path d="M5.958 3.845a1.13 1.13 0 00-1.143-.002c-.36.207-.574.579-.574.994v3.326c0 .415.214.787.574.994a1.14 1.14 0 001.143-.002l2.866-1.662c.357-.208.57-.579.57-.993 0-.414-.213-.785-.57-.993L5.958 3.845zm2.356 2.77L5.449 8.276a.12.12 0 01-.127 0 .126.126 0 01-.066-.114V4.837c0-.063.036-.097.066-.114a.127.127 0 01.063-.018c.02 0 .041.005.064.018l2.865 1.663c.054.031.065.08.065.114a.126.126 0 01-.065.114z"/></g></svg>