<svg width="16" height="14" fill="none" xmlns="http://www.w3.org/2000/svg"><path d="M12.806 13.75c.169 0 .339-.036.5-.11A1.18 1.18 0 0014 12.558V11.25h.563A1.44 1.44 0 0016 9.812V1.687A1.44 1.44 0 0014.562.25H1.438A1.44 1.44 0 000 1.687v8.125a1.44 1.44 0 001.438 1.438h8.357l2.213 2.188a1.181 1.181 0 00.797.313zm1.757-12.5c.24 0 .437.196.437.437v8.125a.438.438 0 01-.438.438H13.5a.5.5 0 00-.5.5v1.808c0 .106-.07.154-.111.173a.182.182 0 01-.194-.02l-2.344-2.317A.5.5 0 0010 10.25H1.437A.438.438 0 011 9.812V1.687c0-.241.196-.437.438-.437h13.124z" fill="#D32F2F"/><path d="M5.991 9.25a.5.5 0 00.235-.059L8 8.248l1.774.943a.5.5 0 00.728-.525l-.34-2.004L11.6 5.243a.5.5 0 00-.278-.85L9.338 4.1l-.889-1.82a.5.5 0 00-.898 0L6.662 4.1l-1.985.291a.5.5 0 00-.278.851l1.44 1.419-.34 2.004a.5.5 0 00.492.584zM8 7.182a.5.5 0 00-.235.059l-1.11.59.213-1.259a.5.5 0 00-.142-.44l-.91-.896 1.252-.184a.5.5 0 00.377-.276L8 3.64l.555 1.137a.5.5 0 00.377.276l1.252.184-.91.896a.5.5 0 00-.142.44l.214 1.259-1.111-.59A.5.5 0 008 7.182z" fill="#D32F2F"/></svg>