<svg width="28" height="16" fill="none" xmlns="http://www.w3.org/2000/svg"><path d="M13.7 15.933h1.674s.505-.056.763-.335c.238-.256.229-.736.229-.736s-.033-2.25 1.01-2.58c1.027-.326 2.347 2.173 3.745 3.135 1.057.728 1.86.568 1.86.568l3.74-.052s1.957-.121 1.03-1.662c-.076-.126-.541-1.14-2.782-3.222-2.345-2.18-2.03-1.826.795-5.596 1.72-2.296 2.408-3.698 2.193-4.298-.205-.571-1.47-.42-1.47-.42L22.28.759s-.312-.042-.545.096c-.226.137-.37.453-.37.453s-.668 1.777-1.557 3.288c-1.874 3.188-2.625 3.356-2.931 3.158-.712-.46-.534-1.854-.534-2.843 0-3.09.467-4.378-.912-4.711-.458-.11-.794-.184-1.965-.196-1.502-.016-2.774.005-3.493.357-.48.235-.85.76-.623.789.278.037.908.17 1.242.626.432.587.417 1.908.417 1.908s.248 3.637-.58 4.09c-.568.31-1.347-.323-3.019-3.217-.855-1.48-1.503-3.12-1.503-3.12s-.124-.305-.346-.468C5.29.771 4.913.71 4.913.71l-4 .024S.311.75.09 1.01c-.196.234-.015.714-.015.714s3.132 7.339 6.678 11.039c3.254 3.391 6.946 3.169 6.946 3.169z" fill="#D32F2F"/></svg>