<svg width="16" height="16" fill="none" xmlns="http://www.w3.org/2000/svg"><path d="M13.755 2.245A7.614 7.614 0 008.335 0a7.614 7.614 0 00-5.42 2.245 7.614 7.614 0 00-2.244 5.42 7.66 7.66 0 00.951 3.7L0 16l4.635-1.622a7.66 7.66 0 003.7.951 7.614 7.614 0 005.42-2.245A7.614 7.614 0 0016 7.664a7.614 7.614 0 00-2.245-5.42zm-1.63 8.267l-.885.885c-.733.733-2.813-.159-4.646-1.991C4.762 7.573 3.87 5.493 4.604 4.76l.884-.884a.47.47 0 01.664 0l1.106 1.106a.47.47 0 010 .663l-.664.664a6.51 6.51 0 003.097 3.097l.664-.664a.47.47 0 01.663 0l1.106 1.106a.47.47 0 010 .664z" fill="#000" opacity=".2"/></svg>