<svg xmlns="http://www.w3.org/2000/svg" width="512" height="512"><g xmlns="http://www.w3.org/2000/svg" fill="#11e332"><path d="M236.605 269.184c-5.625 5.625-15.586 5.625-21.211 0l-23.042-23.042-21.211 21.211L226 322.211l114.858-114.858-21.226-21.211z" data-original="#000000"/><path d="M256 0C115.39 0 0 115.39 0 256s115.39 256 256 256 256-115.39 256-256S396.61 0 256 0zm116.675 217.958l-136.07 136.069c-5.859 5.859-15.352 5.859-21.211 0l-76.069-76.069c-5.859-5.859-5.859-15.352 0-21.211l42.422-42.422c5.859-5.859 15.352-5.859 21.211 0L226 237.367l83.027-83.042c5.859-5.859 15.352-5.859 21.211 0l42.437 42.422c5.859 5.859 5.856 15.355 0 21.211z" data-original="#000000"/></g></svg>