<svg width="5" height="17" viewBox="0 0 5 17" fill="none" xmlns="http://www.w3.org/2000/svg">
<path d="M4.352 6.8L3.992 11.744H1.208L0.824 6.8V0.319999H4.352V6.8ZM2.192 13.376H3.008C3.472 13.376 3.792 13.464 3.968 13.64C4.16 13.816 4.256 14.136 4.256 14.6V15.752C4.256 16.216 4.16 16.544 3.968 16.736C3.792 16.912 3.472 17 3.008 17H2.192C1.728 17 1.4 16.912 1.208 16.736C1.032 16.544 0.944 16.216 0.944 15.752V14.6C0.944 14.136 1.032 13.816 1.208 13.64C1.4 13.464 1.728 13.376 2.192 13.376Z" fill="#D32F2F"/>
</svg>
