<svg width="30" height="25" viewBox="0 0 30 25" fill="none" xmlns="http://www.w3.org/2000/svg">
<path d="M29.5638 1.73477C29.199 1.17262 28.656 0.799578 28.0349 0.684323C27.4135 0.569196 26.7886 0.725458 26.2749 1.12455C25.7619 1.52313 25.4211 2.11609 25.3153 2.7946L25.2191 3.39134C18.436 2.22384 11.5706 2.2223 4.78731 3.38646L4.68415 2.74743C4.46503 1.34646 3.24602 0.400485 1.96478 0.638118C0.682426 0.876073 -0.183995 2.21113 0.0334158 3.61441L3.70313 23.737C3.81145 24.4351 4.36674 24.9302 4.9934 24.9302C5.06577 24.9302 5.1392 24.9235 5.21292 24.9099L7.28252 24.5259C7.99422 24.3938 8.47514 23.6528 8.3545 22.8739L6.69064 15.6953C12.2202 14.8998 17.7866 14.8993 23.3164 15.6934L21.6451 22.92C21.5867 23.2973 21.6659 23.6769 21.8685 23.989C22.0709 24.301 22.3723 24.5081 22.7171 24.5721L24.7868 24.956C24.8608 24.9698 24.9349 24.9766 25.0085 24.9766C25.2777 24.9766 25.5397 24.8856 25.7636 24.7117C26.0488 24.4901 26.2381 24.1603 26.2965 23.7831L29.9662 3.66061C30.0716 2.98083 29.9287 2.29687 29.5638 1.73477ZM27.2935 2.69429C27.424 2.5929 27.583 2.55298 27.7407 2.58244C27.8986 2.6117 28.0366 2.70655 28.1292 2.84933C28.2219 2.99218 28.2583 3.16596 28.2314 3.33865L28.1402 3.92732L26.9547 3.70752L27.0496 3.11937C27.0763 2.94669 27.163 2.79569 27.2935 2.69429ZM1.76813 3.29258C1.71288 2.93597 1.93305 2.59675 2.2589 2.5363C2.5844 2.47565 2.89483 2.71675 2.95008 3.0733L3.0516 3.7022L1.86566 3.92212L1.76813 3.29258ZM6.54454 22.7101L5.3626 22.9294L3.76694 16.1911C4.16076 16.1143 4.55482 16.0421 4.94912 15.9733L6.54454 22.7101ZM3.47973 14.291L2.16049 5.82004L4.27583 5.42781C11.3844 4.1097 18.593 4.1097 25.7017 5.42781L27.8209 5.82081L26.5344 14.2898C18.8803 12.8002 11.1332 12.8005 3.47973 14.291ZM24.637 22.9756L23.4551 22.7563L25.0581 15.971C25.4524 16.0397 25.8465 16.1116 26.2403 16.1884L24.637 22.9756Z" fill="#D32F2F"/>
</svg>
