<svg width="30" height="31" viewBox="0 0 30 31" fill="none" xmlns="http://www.w3.org/2000/svg">
<path d="M5.78389e-05 20.8746C-0.000113163 21.1774 0.155687 21.459 0.412319 21.6198L14.5334 30.4674C14.6761 30.5569 14.8381 30.6016 15 30.6016C15.162 30.6016 15.324 30.5569 15.4667 30.4674L29.5877 21.6198C29.8452 21.4585 30.0011 21.1756 30 20.8718C29.9989 20.568 29.8409 20.2863 29.5823 20.1269L26.5334 18.2474L29.5855 16.3478C29.8439 16.187 30.0006 15.904 30 15.5997C29.9993 15.2954 29.8413 15.0131 29.5823 14.8534L26.5334 12.9739L29.5855 11.0743C29.8429 10.9141 29.9995 10.6325 30 10.3294C30.0005 10.0263 29.8447 9.74426 29.5877 9.5833L15.4667 0.735683C15.1813 0.556856 14.8187 0.556856 14.5333 0.735683L0.412262 9.5833C0.155383 9.74426 -0.000417161 10.0263 8.38979e-07 10.3294C0.00045684 10.6326 0.157093 10.9141 0.414485 11.0743L3.44564 12.9609L0.413136 14.8563C0.155915 15.0171 -0.000246164 15.2991 5.78389e-05 15.6024C0.000342838 15.9058 0.157017 16.1875 0.414542 16.3478L3.44572 18.2344L0.413136 20.1297C0.156314 20.2903 0.000228841 20.5717 5.78389e-05 20.8746ZM15 2.51774L27.4618 10.3257C27.342 10.4003 15.3572 17.8597 15 18.082L2.53826 10.3257L15 2.51774ZM5.10742 13.9953L14.5356 19.8634C14.6778 19.9519 14.8389 19.9961 15 19.9961C15.1612 19.9961 15.3223 19.9519 15.4644 19.8634L24.8666 14.0115L27.4521 15.6052C27.3806 15.6497 15.3299 23.15 15 23.3554L2.53975 15.6001L5.10742 13.9953ZM5.10742 19.2687L14.5356 25.1368C14.6778 25.2253 14.8389 25.2696 15 25.2696C15.1612 25.2696 15.3223 25.2253 15.4644 25.1368L24.8666 19.2849L27.456 20.8811L15 28.6855L2.53581 20.876L5.10742 19.2687Z" fill="#D32F2F"/>
</svg>
