<svg width="25" height="27" viewBox="0 0 25 27" fill="none" xmlns="http://www.w3.org/2000/svg">
<path d="M15.7193 26.8085H4.64037C2.08161 26.8085 0 24.9295 0 22.6197V8.43003C0 6.12025 2.08161 4.2412 4.64037 4.2412H15.7193C18.278 4.2412 20.3596 6.12025 20.3596 8.43003V22.6197C20.3596 24.9295 18.278 26.8085 15.7193 26.8085ZM4.64037 6.33561C3.36108 6.33561 2.32019 7.27522 2.32019 8.43003V22.6197C2.32019 23.7745 3.36108 24.7141 4.64037 24.7141H15.7193C16.9986 24.7141 18.0394 23.7745 18.0394 22.6197V8.43003C18.0394 7.27522 16.9986 6.33561 15.7193 6.33561H4.64037ZM25 20.0017V4.18884C25 1.87906 22.9184 0 20.3596 0H7.4826C6.84182 0 6.32251 0.468783 6.32251 1.04721C6.32251 1.62563 6.84182 2.09442 7.4826 2.09442H20.3596C21.6389 2.09442 22.6798 3.03402 22.6798 4.18884V20.0017C22.6798 20.5801 23.1991 21.0489 23.8399 21.0489C24.4807 21.0489 25 20.5801 25 20.0017Z" fill="#D32F2F"/>
</svg>
