<svg width="30" height="23" viewBox="0 0 30 23" fill="none" xmlns="http://www.w3.org/2000/svg">
<path d="M22.9649 1.6449H21.8616V0H0V14.5146C0 18.9178 3.83149 22.5 8.54107 22.5H13.3206C17.928 22.5 21.6944 19.0713 21.8556 14.7997H22.9649C26.8441 14.7997 30 11.849 30 8.2222C30 4.59537 26.844 1.6449 22.9649 1.6449ZM21.8616 6.57549H22.9649C23.9361 6.57549 24.7263 7.31426 24.7263 8.22237C24.7263 9.13047 23.9361 9.86919 22.9649 9.86919H21.8616V6.57549ZM20.1037 14.5146C20.1037 18.0116 17.0608 20.8565 13.3205 20.8565H8.54101C4.8008 20.8565 1.75789 18.0116 1.75789 14.5146V1.64353H20.1037V14.5146ZM22.9649 13.1562H21.8616V11.5127H22.9649C24.9054 11.5127 26.4842 10.0367 26.4842 8.22231C26.4842 6.40797 24.9054 4.93191 22.9649 4.93191H21.8616V3.28838H22.9649C25.8747 3.28838 28.242 5.50167 28.242 8.22226C28.242 10.9429 25.8747 13.1562 22.9649 13.1562Z" fill="#D32F2F"/>
</svg>
