<svg width="376" height="376" viewBox="0 0 376 376" fill="none" xmlns="http://www.w3.org/2000/svg">
<g opacity="0.03" clip-path="url(#clip0)">
<path d="M111.732 297.511L259.6 90.2356L257.268 88.253L112.694 290.911L111.732 297.511Z" fill="black"/>
<path d="M115.581 271.108L250.297 82.2686L247.974 80.274L116.534 264.521L115.581 271.108Z" fill="black"/>
<path d="M119.42 244.719L241.003 74.2897L238.67 72.3079L120.383 238.117L119.42 244.719Z" fill="black"/>
<path d="M123.27 218.317L231.701 66.3233L229.377 64.3273L124.232 211.715L123.27 218.317Z" fill="black"/>
<path d="M127.11 191.926L222.407 58.3436L220.074 56.3618L128.072 185.326L127.11 191.926Z" fill="black"/>
<path d="M130.96 165.523L213.103 50.3774L210.78 48.3828L131.921 158.923L130.96 165.523Z" fill="black"/>
<path d="M134.799 139.133L203.809 42.3977L201.477 40.4158L135.761 132.533L134.799 139.133Z" fill="black"/>
<path d="M138.648 112.731L194.506 34.4315L192.182 32.4377L139.611 106.129L138.648 112.731Z" fill="black"/>
<path d="M142.488 86.342L185.212 26.4532L182.88 24.4699L143.451 79.7398L142.488 86.342Z" fill="black"/>
<path d="M146.338 59.9381L175.909 18.4862L173.587 16.4908L147.299 53.339L146.338 59.9381Z" fill="black"/>
<path d="M150.186 33.5368L166.614 10.5081L164.284 8.52381L151.139 26.9487L150.186 33.5368Z" fill="black"/>
<path d="M154.026 7.14646L157.313 2.53945L154.989 0.544867L154.026 7.14646Z" fill="black"/>
<path d="M361.88 177.944L359.556 175.949L356.191 180.667L361.88 177.944Z" fill="black"/>
<path d="M339.141 188.81L352.585 169.965L350.254 167.981L333.452 191.533L339.141 188.81Z" fill="black"/>
<path d="M316.394 199.688L343.282 161.998L340.959 160.003L310.714 202.399L316.394 199.688Z" fill="black"/>
<path d="M293.656 210.554L333.988 154.018L331.656 152.035L287.975 213.265L293.656 210.554Z" fill="black"/>
<path d="M270.918 221.421L324.686 146.052L322.361 144.057L265.228 224.144L270.918 221.421Z" fill="black"/>
<path d="M248.18 232.287L315.392 138.073L313.059 136.091L242.491 235.011L248.18 232.287Z" fill="black"/>
<path d="M225.432 243.167L306.088 130.107L303.765 128.112L219.753 245.877L225.432 243.167Z" fill="black"/>
<path d="M202.694 254.033L296.794 122.127L294.462 120.145L197.014 256.743L202.694 254.033Z" fill="black"/>
<path d="M179.955 264.899L287.491 114.161L285.168 112.165L174.266 267.623L179.955 264.899Z" fill="black"/>
<path d="M157.217 275.766L278.198 106.181L275.865 104.198L151.528 278.489L157.217 275.766Z" fill="black"/>
<path d="M134.47 286.645L268.895 98.2145L266.571 96.22L128.79 289.356L134.47 286.645Z" fill="black"/>
</g>
<defs>
<clipPath id="clip0">
<rect width="266.875" height="271.45" fill="white" transform="translate(0 217.802) rotate(-54.4963)"/>
</clipPath>
</defs>
</svg>
