<svg width="21" height="21" viewBox="0 0 21 21" fill="none" xmlns="http://www.w3.org/2000/svg">
<path d="M17.6515 0.145164H3.33857C1.57728 0.145164 0.14502 1.57742 0.14502 3.33871V17.6516C0.14502 19.4129 1.57728 20.8452 3.33857 20.8452H17.6515C19.4128 20.8452 20.845 19.4129 20.845 17.6516V3.33871C20.845 2.4871 20.516 1.68387 19.9063 1.08387C19.3063 0.474197 18.5128 0.145164 17.6515 0.145164ZM16.345 1.30645C18.1934 1.30645 19.6934 2.80645 19.6934 4.65484C19.6934 6.1742 17.0031 9.95807 16.4611 10.7032L16.345 10.8677L16.2289 10.7032C15.687 9.95807 12.9966 6.1742 12.9966 4.65484C12.987 2.80645 14.4966 1.30645 16.345 1.30645ZM1.46115 18.4355C1.3547 18.1839 1.30631 17.9226 1.30631 17.6613V3.33871C1.30631 2.21613 2.21599 1.30645 3.33857 1.30645H13.3063L13.0741 1.54839C12.2708 2.39033 11.8353 3.49355 11.8353 4.65484C11.8353 5.2742 12.1353 6.1742 12.716 7.31613L12.7644 7.41291L1.54825 18.629L1.46115 18.4355ZM18.4353 19.5387C18.1837 19.6452 17.9224 19.6936 17.6611 19.6936H3.33857C3.0676 19.6936 2.80631 19.6452 2.56437 19.5387L2.36115 19.4516L10.4902 11.3226L18.6192 19.4516L18.4353 19.5387ZM19.6934 17.6516C19.6934 17.9226 19.645 18.1839 19.5386 18.4258L19.4515 18.629L11.3224 10.5L13.3547 8.46775L13.4515 8.62258C14.4773 10.3355 15.6579 11.8839 15.8902 12.1839C15.9966 12.329 16.1708 12.4065 16.3547 12.4065C16.5386 12.4065 16.7031 12.3194 16.8192 12.1839C17.0708 11.8548 18.3676 10.1419 19.4418 8.31291L19.7128 7.84839L19.6934 17.6516Z" fill="#D32F2F"/>
<path d="M6.19343 2.63226C4.33536 2.63226 2.82568 4.14194 2.82568 6C2.82568 7.85807 4.33536 9.36775 6.19343 9.36775C8.05149 9.36775 9.56117 7.85807 9.56117 6C9.56117 5.68065 9.29988 5.41936 8.98052 5.41936H6.19343C5.87407 5.41936 5.61278 5.68065 5.61278 6C5.61278 6.31936 5.87407 6.58065 6.19343 6.58065H8.33214L8.25472 6.7742C7.93536 7.62581 7.1031 8.19678 6.19343 8.19678C4.97407 8.19678 3.98697 7.20968 3.98697 5.99033C3.98697 4.77097 4.97407 3.78388 6.19343 3.78388C6.78375 3.78388 7.33536 4.01613 7.75149 4.43226C7.97407 4.65484 8.34181 4.65484 8.57407 4.43226C8.79665 4.20968 8.79665 3.84194 8.57407 3.60968C7.93536 2.98065 7.09343 2.63226 6.19343 2.63226Z" fill="#D32F2F"/>
</svg>
