<svg width="43" height="43" viewBox="0 0 43 43" fill="none" xmlns="http://www.w3.org/2000/svg">
<g opacity="0.4">
<path d="M19.3499 19.35H23.6499V32.25H19.3499V19.35Z" fill="black"/>
<path d="M21.5001 0C33.3787 0 43 9.62128 43 21.4999C43 33.3786 33.3787 42.9999 21.5001 42.9999C9.62138 42.9999 0 33.3787 0 21.4999C0 9.62117 9.62128 0 21.5001 0ZM21.5001 38.7C30.9815 38.7 38.7001 30.9814 38.7001 21.4999C38.7001 12.0185 30.9815 4.30003 21.5001 4.30003C12.0186 4.30003 4.30003 12.0185 4.30003 21.4999C4.30003 30.9814 12.0186 38.7 21.5001 38.7Z" fill="black"/>
<path d="M19.3499 10.7501H23.6499V15.0501H19.3499V10.7501Z" fill="black"/>
</g>
</svg>
