<svg width="16" height="16" viewBox="0 0 16 16" fill="none" xmlns="http://www.w3.org/2000/svg">
<g opacity="0.2">
<path d="M10.606 8.08202L15.9999 11.492V4.52802L10.606 8.08202Z" fill="black"/>
<path d="M0 4.52802V11.492L5.394 8.08202L0 4.52802Z" fill="black"/>
<path d="M15.0003 2.5H1.00027C0.501273 2.5 0.105273 2.872 0.0302734 3.351L8.00027 8.602L15.9703 3.351C15.8953 2.872 15.4993 2.5 15.0003 2.5Z" fill="black"/>
<path d="M9.69023 8.686L8.27523 9.618C8.19123 9.673 8.09623 9.7 8.00023 9.7C7.90423 9.7 7.80923 9.673 7.72523 9.618L6.31023 8.685L0.0322266 12.656C0.109227 13.131 0.503227 13.5 1.00023 13.5H15.0002C15.4972 13.5 15.8912 13.131 15.9682 12.656L9.69023 8.686Z" fill="black"/>
</g>
</svg>
