<svg width="12" height="12" viewBox="0 0 12 12" fill="none" xmlns="http://www.w3.org/2000/svg">
<path d="M11.5724 3.05248e-08C11.5059 -2.50807e-05 11.4402 0.0154434 11.3807 0.0452002L8.13299 1.66947L4.46063 0.0370642C4.45463 0.0345028 4.44777 0.0340508 4.44134 0.0314895C4.42482 0.0253121 4.40792 0.0201643 4.39077 0.0160712C4.37372 0.0114759 4.35639 0.00788496 4.33892 0.00534872C4.30411 0.00248604 4.26913 0.00248604 4.23435 0.00534872C4.21687 0.00788496 4.19955 0.0114759 4.1825 0.0160712C4.16535 0.0201643 4.14845 0.0253121 4.13192 0.0314895C4.12549 0.0340508 4.11864 0.0344777 4.11264 0.0370642L0.255554 1.75133C0.100718 1.82009 0.000951456 1.97362 0.000976567 2.14302V11.5715C0.0010519 11.7164 0.0744018 11.8516 0.195965 11.9306C0.317554 12.0097 0.470908 12.022 0.60352 11.9632L4.28661 10.326L7.9697 11.9632C7.97613 11.9657 7.98298 11.9632 7.98941 11.967C8.09317 12.0134 8.21227 12.0108 8.31382 11.9597C8.32068 11.9568 8.32839 11.9597 8.33524 11.955L11.7638 10.2408C11.909 10.1682 12.0008 10.0196 12.0008 9.85718V0.428774C12.0009 0.192076 11.8091 0.000100475 11.5724 3.05248e-08ZM3.85806 9.57863L0.858098 10.9119V2.4216L3.85806 1.08832V9.57863ZM7.71514 10.9119L4.71518 9.57863V1.08832L7.71514 2.42158V10.9119ZM11.1437 9.59234L8.57227 10.878V2.40787L11.1437 1.12217V9.59234Z" fill="#D32F2F"/>
</svg>
