<svg width="40" height="40" viewBox="0 0 40 40" fill="none" xmlns="http://www.w3.org/2000/svg">
<path d="M36.4844 6.40625H33.6719V1.17187C33.6719 0.52448 33.1474 0 32.5 0H23.9062C22.3373 0 20.9322 0.715729 20 1.83719C19.0678 0.715729 17.6627 0 16.0938 0H7.5C6.8526 0 6.32812 0.52448 6.32812 1.17187V6.40625H3.51562C1.57719 6.40625 0 7.98344 0 9.92187V29.4531C0 31.3916 1.57719 32.9687 3.51562 32.9687H15.2491L13.6866 37.6562H9.0625C8.4151 37.6562 7.89062 38.1807 7.89062 38.8281C7.89062 39.4755 8.4151 40 9.0625 40H30.9375C31.5849 40 32.1094 39.4755 32.1094 38.8281C32.1094 38.1807 31.5849 37.6562 30.9375 37.6562H26.3134L24.7509 32.9687H36.4844C38.4228 32.9687 40 31.3916 40 29.4531V9.92187C40 7.98344 38.4228 6.40625 36.4844 6.40625ZM23.9062 2.34375H31.3281V17.1875H23.125C22.4223 17.1875 21.7582 17.3572 21.1719 17.6575V5.07812C21.1719 3.57052 22.3986 2.34375 23.9062 2.34375ZM8.67187 2.34375H16.0938C17.6014 2.34375 18.8281 3.57052 18.8281 5.07812V17.6575C18.2418 17.3572 17.5777 17.1875 16.875 17.1875H8.67187V2.34375ZM3.51562 8.75H6.32812V18.3594C6.32812 19.0068 6.8526 19.5312 7.5 19.5312H16.875C17.9521 19.5312 18.8281 20.4073 18.8281 21.4844C18.8281 22.1318 19.3526 22.6562 20 22.6562C20.6474 22.6562 21.1719 22.1318 21.1719 21.4844C21.1719 20.4073 22.0479 19.5312 23.125 19.5312H32.5C33.1474 19.5312 33.6719 19.0068 33.6719 18.3594V8.75H36.4844C37.1305 8.75 37.6562 9.27573 37.6562 9.92187V25.1562H2.34375V9.92187C2.34375 9.27573 2.86948 8.75 3.51562 8.75ZM23.8428 37.6562H16.1572L17.7197 32.9687H22.2803L23.8428 37.6562ZM36.4844 30.625H3.51562C2.86948 30.625 2.34375 30.0993 2.34375 29.4531V27.5H37.6562V29.4531C37.6562 30.0993 37.1305 30.625 36.4844 30.625Z" fill="#D32F2F"/>
</svg>
