<svg width="39" height="40" viewBox="0 0 39 40" fill="none" xmlns="http://www.w3.org/2000/svg">
<g clip-path="url(#clip0)">
<path d="M37.1196 20.5181C36.9561 20.1888 36.9561 19.8112 37.1196 19.482L38.6356 16.4301C39.4795 14.7308 38.8108 12.7054 37.1132 11.8189L34.064 10.2268C33.7351 10.055 33.5096 9.74943 33.4452 9.38853L32.8488 6.04257C32.5167 4.17964 30.7657 2.92777 28.8631 3.19269L25.4454 3.66848C25.0765 3.71969 24.7118 3.60304 24.4441 3.34826L21.9633 0.9864C20.582 -0.328762 18.418 -0.328839 17.0367 0.9864L14.5559 3.34834C14.2882 3.60319 13.9234 3.71969 13.5546 3.66856L10.1369 3.19277C8.23371 2.92769 6.48329 4.17972 6.15119 6.04265L5.55483 9.38846C5.49044 9.74943 5.26493 10.055 4.93603 10.2268L1.88693 11.8189C0.189252 12.7054 -0.479471 14.7309 0.364521 16.4301L1.88036 19.482C2.04391 19.8112 2.04391 20.1889 1.88036 20.5181L0.364443 23.57C-0.47955 25.2693 0.189174 27.2947 1.88685 28.1812L4.93596 29.7733C5.26493 29.945 5.49044 30.2506 5.55483 30.6115L6.15119 33.9575C6.45352 35.6534 7.93115 36.8428 9.62937 36.8427C9.79667 36.8427 9.96639 36.8311 10.137 36.8074L13.5547 36.3316C13.9233 36.2801 14.2882 36.397 14.556 36.6518L17.0367 39.0137C17.7275 39.6713 18.6136 40.0001 19.5 40C20.3862 39.9999 21.2728 39.6712 21.9633 39.0137L24.4442 36.6518C24.7119 36.397 25.0767 36.2806 25.4455 36.3316L28.8632 36.8074C30.7666 37.0724 32.5168 35.8204 32.8489 33.9575L33.4452 30.6117C33.5096 30.2507 33.7351 29.9452 34.064 29.7734L37.1131 28.1812C38.8108 27.2948 39.4795 25.2693 38.6356 23.57L37.1196 20.5181ZM35.0136 21.5312L36.5295 24.5831C36.815 25.158 36.5888 25.8433 36.0144 26.1432L32.9653 27.7354C31.9932 28.2431 31.3265 29.146 31.1363 30.213L30.5399 33.5588C30.4276 34.1891 29.8355 34.6125 29.1915 34.523L25.7738 34.0472C24.6839 33.8953 23.6053 34.2405 22.8143 34.9936L20.3334 37.3554C19.8661 37.8003 19.134 37.8003 18.6666 37.3554L16.1858 34.9936C15.5172 34.3571 14.6432 34.0122 13.7308 34.0122C13.5636 34.0122 13.3951 34.0237 13.2263 34.0472L9.80863 34.523C9.16514 34.6125 8.57253 34.1891 8.46016 33.5588L7.86379 30.2129C7.6736 29.146 7.00691 28.243 6.03469 27.7354L2.98558 26.1432C2.41117 25.8433 2.18496 25.158 2.47048 24.5831L3.9864 21.5312C4.4697 20.5581 4.4697 19.442 3.9864 18.4689L2.47048 15.417C2.18496 14.842 2.41117 14.1568 2.98558 13.8569L6.03469 12.2647C7.00683 11.757 7.67352 10.854 7.86372 9.78711L8.46008 6.44122C8.57245 5.81094 9.16452 5.38744 9.80855 5.47704L13.2262 5.95282C14.3158 6.10462 15.3947 5.75957 16.1857 5.00648L18.6666 2.64461C19.1339 2.19974 19.866 2.19974 20.3334 2.64461L22.8142 5.00648C23.6053 5.75957 24.684 6.10462 25.7737 5.95282L29.1914 5.47704C29.8349 5.38744 30.4276 5.81094 30.5398 6.44122L31.1362 9.78719C31.3264 10.854 31.9931 11.7571 32.9653 12.2647L36.0144 13.8569C36.5888 14.1568 36.815 14.842 36.5295 15.417L35.0136 18.4689C34.5303 19.4419 34.5303 20.5581 35.0136 21.5312Z" fill="white"/>
<path d="M28.0643 11.5715C27.6066 11.121 26.8644 11.121 26.4067 11.5715L10.9357 26.7971C10.478 27.2476 10.478 27.978 10.9357 28.4285C11.1646 28.6537 11.4646 28.7664 11.7645 28.7664C12.0644 28.7664 12.3644 28.6538 12.5932 28.4285L28.0642 13.2028C28.522 12.7523 28.522 12.022 28.0643 11.5715Z" fill="white"/>
<path d="M14.8115 18.0775C17.1813 18.0775 19.1092 16.1801 19.1092 13.848C19.1092 11.5158 17.1813 9.61841 14.8115 9.61841C12.4417 9.61841 10.5138 11.5158 10.5138 13.848C10.5138 16.1801 12.4417 18.0775 14.8115 18.0775ZM14.8115 11.9254C15.8887 11.9254 16.765 12.7879 16.765 13.848C16.765 14.908 15.8887 15.7705 14.8115 15.7705C13.7343 15.7705 12.858 14.908 12.858 13.848C12.858 12.7879 13.7343 11.9254 14.8115 11.9254Z" fill="white"/>
<path d="M24.1883 21.9226C21.8186 21.9226 19.8906 23.82 19.8906 26.1522C19.8906 28.4843 21.8186 30.3817 24.1883 30.3817C26.5581 30.3817 28.486 28.4843 28.486 26.1522C28.486 23.82 26.5581 21.9226 24.1883 21.9226ZM24.1883 28.0747C23.1112 28.0747 22.2348 27.2122 22.2348 26.1522C22.2348 25.0921 23.1112 24.2296 24.1883 24.2296C25.2655 24.2296 26.1418 25.0921 26.1418 26.1522C26.1418 27.2122 25.2655 28.0747 24.1883 28.0747Z" fill="white"/>
</g>
<defs>
<clipPath id="clip0">
<rect width="39" height="40" fill="white"/>
</clipPath>
</defs>
</svg>
