<svg width="38" height="38" viewBox="0 0 38 38" fill="none" xmlns="http://www.w3.org/2000/svg">
<path d="M36.9861 36.3398C36.1281 37.3949 34.8558 38 33.4955 38H26.793C25.9732 38 25.3086 37.3354 25.3086 36.5156C25.3086 35.6958 25.9732 35.0312 26.793 35.0312H33.4955C34.1291 35.0312 34.5114 34.6775 34.6829 34.4667C34.979 34.1027 35.0935 33.6288 34.9973 33.1666C34.8301 32.364 35.3453 31.5779 36.148 31.4108C36.9504 31.2438 37.7366 31.7589 37.9037 32.5614C38.1829 33.9023 37.8484 35.2794 36.9861 36.3398ZM23.3442 33.1535C23.4528 33.648 23.302 34.1636 22.9441 34.5217L19.9755 37.4909C19.6971 37.7693 19.3195 37.9258 18.9258 37.9258C18.532 37.9258 18.1544 37.7694 17.876 37.4909L14.9071 34.5217C14.5492 34.1637 14.3984 33.648 14.5069 33.1534L17.3407 20.261C10.3488 20.9796 4.45607 26.1849 3.00257 33.1665C2.90631 33.6288 3.0209 34.1026 3.31696 34.4667C3.48848 34.6776 3.87071 35.0312 4.50439 35.0312H10.9844C11.8042 35.0312 12.4687 35.6958 12.4687 36.5156C12.4687 37.3354 11.8042 38 10.9844 38H4.50454C3.14418 38 1.87185 37.3949 1.01388 36.3398C0.151601 35.2794 -0.182904 33.9023 0.0963075 32.5614C0.987157 28.2822 3.34709 24.388 6.74127 21.5961C8.59244 20.0735 10.7077 18.9195 12.9618 18.1774C10.5013 16.335 8.90623 13.3972 8.90623 10.0938C8.90623 4.52801 13.4343 0 19 0C24.5657 0 29.0938 4.52801 29.0938 10.0938C29.0938 13.395 27.5007 16.3311 25.0429 18.1739C29.0757 19.5011 32.6128 22.142 35.0485 25.7748C35.505 26.4556 35.3232 27.3777 34.6422 27.8343C33.9614 28.2909 33.0392 28.1089 32.5827 27.4281C29.8198 23.3075 25.3838 20.6937 20.5071 20.2446L23.3442 33.1535ZM18.6527 17.2102C18.7684 17.2081 18.8841 17.2064 19 17.2064C19.1181 17.2064 19.2359 17.2078 19.3537 17.21C23.1188 17.025 26.125 13.9039 26.125 10.0938C26.125 6.16498 22.9288 2.96875 19 2.96875C15.0712 2.96875 11.875 6.16498 11.875 10.0938C11.875 13.9061 14.8846 17.0285 18.6527 17.2102ZM20.2702 32.9972L18.9257 26.8797L17.5811 32.9971L18.9257 34.342L20.2702 32.9972Z" fill="white"/>
</svg>
