<svg width="40" height="40" viewBox="0 0 40 40" fill="none" xmlns="http://www.w3.org/2000/svg">
<path d="M0.398338 16.8887L5.84469 12.0872V6.58834C5.84469 5.93897 6.37167 5.41199 7.02105 5.41199H13.4172L19.222 0.294386C19.6668 -0.0978031 20.3332 -0.0978031 20.778 0.294386L26.5828 5.41199H32.979C33.6283 5.41199 34.1553 5.93897 34.1553 6.58834V12.0872L39.6017 16.8887C39.8429 17.1292 40 17.3732 40 17.7713V38.8239C40 39.4598 39.4836 40.0002 38.8236 40.0002H1.17635C0.518021 40.0002 0 39.464 0 38.8239V17.7713C0 17.3858 0.159481 17.1267 0.398338 16.8887ZM2.35313 36.0961L12.4202 26.5956C12.1382 26.4093 2.51958 20.0662 2.35313 19.9563V36.0961ZM36.8908 17.6362C35.4594 16.3736 36.0848 16.9252 34.1553 15.2244V19.4403C35.7072 18.4178 36.0616 18.183 36.8908 17.6362ZM31.8022 7.76511H8.19782V20.9922C17.5094 27.1336 16.0438 26.1672 20 28.7758C24.0433 26.1098 29.2041 22.7062 31.8022 20.9922C31.8022 15.8739 31.8022 12.2341 31.8022 7.76511ZM20 2.74522L16.9751 5.41199H23.0249L20 2.74522ZM3.10917 17.6362C3.92542 18.1745 4.32011 18.4356 5.84469 19.4403C5.84469 18.9443 5.84469 15.7241 5.84469 15.2244C3.91563 16.9252 4.54063 16.374 3.10917 17.6362ZM37.6469 19.9563C37.6453 19.9575 27.8336 26.4276 27.5798 26.5956L37.6469 36.0961V19.9563ZM25.5616 27.9267L20.6478 31.1672C20.2535 31.4264 19.7465 31.4268 19.3522 31.1672L14.4384 27.9267L4.1374 37.6471H35.8626L25.5616 27.9267Z" fill="white"/>
<path d="M25.378 14.7131H14.6219C13.9725 14.7131 13.4456 14.1858 13.4456 13.5363C13.4456 12.8861 13.9725 12.36 14.6219 12.36H25.378C26.0273 12.36 26.5543 12.8861 26.5543 13.5363C26.5543 14.1858 26.0273 14.7131 25.378 14.7131Z" fill="white"/>
<path d="M25.378 19.9866H14.6219C13.9685 19.9866 13.4456 19.4553 13.4456 18.8103C13.4456 18.1564 13.9762 17.6339 14.6219 17.6339H25.378C26.0245 17.6339 26.5543 18.1568 26.5543 18.8103C26.5543 19.4556 26.0314 19.9866 25.378 19.9866Z" fill="white"/>
</svg>
