<svg width="40" height="40" viewBox="0 0 40 40" fill="none" xmlns="http://www.w3.org/2000/svg">
<path d="M38.8281 8.27552C39.4755 8.27552 40 7.75062 40 7.10365V1.17187C40 0.52448 39.4755 0 38.8281 0H32.8964C32.2494 0 31.7245 0.52448 31.7245 1.17187V2.96594H8.27552V1.17187C8.27552 0.52448 7.75062 0 7.10364 0H1.17188C0.524476 0 0 0.52448 0 1.17187V7.10365C0 7.75062 0.524476 8.27552 1.17188 8.27552H2.96594V31.7245H1.17188C0.524476 31.7245 0 32.2494 0 32.8964V38.8281C0 39.4755 0.524476 40 1.17188 40H7.10364C7.75062 40 8.27552 39.4755 8.27552 38.8281V37.0341H31.7245V38.8281C31.7245 39.4755 32.2494 40 32.8964 40H38.8281C39.4755 40 40 39.4755 40 38.8281V32.8964C40 32.2494 39.4755 31.7245 38.8281 31.7245H37.0341V8.27552H38.8281ZM34.0682 2.34375H37.6562V5.93177H34.0682V2.34375ZM2.34375 2.34375H5.93177V5.93177H2.34375V2.34375ZM5.93177 37.6562H2.34375V34.0682H5.93177V37.6562ZM37.6562 37.6562H34.0682V34.0682H37.6562V37.6562ZM34.6903 31.7245H32.8968C32.2494 31.7245 31.7249 32.2494 31.7249 32.8964V34.6903H8.27552V32.8964C8.27552 32.2494 7.75062 31.7245 7.10364 31.7245H5.30968V8.27552H7.10323C7.75062 8.27552 8.2751 7.75062 8.2751 7.10365V5.30969H31.7245V7.10323C31.7245 7.75062 32.2494 8.2751 32.8964 8.2751H34.6903V31.7245Z" fill="white"/>
<path d="M28.3984 10.7157H11.6016C10.9546 10.7157 10.4297 11.2406 10.4297 11.8876V16.149C10.4297 16.796 10.9546 17.3209 11.6016 17.3209C12.249 17.3209 12.7734 16.796 12.7734 16.149V13.0594H18.8281V27.0967H16.6443C15.9973 27.0967 15.4724 27.6212 15.4724 28.2686C15.4724 28.9156 15.9973 29.4405 16.6443 29.4405H23.3553C24.0027 29.4405 24.5272 28.9156 24.5272 28.2686C24.5272 27.6212 24.0027 27.0967 23.3553 27.0967H21.1719V13.0594H27.2266V16.149C27.2266 16.796 27.751 17.3209 28.3984 17.3209C29.0454 17.3209 29.5703 16.796 29.5703 16.149V11.8876C29.5703 11.2406 29.0454 10.7157 28.3984 10.7157Z" fill="white"/>
</svg>
