<svg width="50" height="35" viewBox="0 0 50 35" fill="none" xmlns="http://www.w3.org/2000/svg">
<path d="M5.8529 30.2129H10.1835L10.2325 30.3983C10.9476 33.1077 13.3779 35 16.1425 35C18.9071 35 21.3373 33.1077 22.0525 30.3983L22.1014 30.2129H31.9295L31.9785 30.3983C32.6936 33.1077 35.1239 35 37.8885 35C40.6532 35 43.0834 33.1077 43.7985 30.3983L43.8474 30.2129H48.6553C49.3968 30.2129 50 29.6012 50 28.8493V18.3607C50 18.0594 49.8997 17.7624 49.7176 17.5242L46.566 13.408L46.6168 13.3823L41.9543 3.97817C41.7243 3.51507 41.2639 3.2273 40.7526 3.2273H33.717V1.36359C33.717 0.611695 33.1138 0 32.3724 0H5.8529C5.11148 0 4.5083 0.611695 4.5083 1.36359C4.5083 2.11549 5.11148 2.72724 5.8529 2.72724H31.0278V14.2727C31.0278 15.0246 31.631 15.6364 32.3724 15.6364H44.8676L47.3108 18.8279V27.4857H43.8715L43.8249 27.2961C43.1443 24.5258 40.7031 22.591 37.8885 22.591C35.0738 22.591 32.6326 24.5258 31.952 27.2961L31.9054 27.4857H22.1255L22.0789 27.2961C21.3983 24.5258 18.9572 22.591 16.1425 22.591C13.3277 22.591 10.8866 24.5258 10.206 27.2961L10.1595 27.4857H5.8529C5.11148 27.4857 4.5083 28.0974 4.5083 28.8493C4.5083 29.6012 5.11148 30.2129 5.8529 30.2129ZM33.717 12.9091V5.95448H39.9233L43.3712 12.9091H33.717ZM37.8885 25.3182C39.7792 25.3182 41.3173 26.8781 41.3173 28.7955C41.3173 30.713 39.7792 32.2728 37.8885 32.2728C35.9978 32.2728 34.4595 30.713 34.4595 28.7955C34.4595 26.8781 35.9978 25.3182 37.8885 25.3182ZM16.1425 25.3182C18.0332 25.3182 19.5713 26.8781 19.5713 28.7955C19.5713 30.713 18.0332 32.2728 16.1425 32.2728C14.2518 32.2728 12.7136 30.713 12.7136 28.7955C12.7136 26.8781 14.2518 25.3182 16.1425 25.3182Z" fill="white"/>
<path d="M11.2629 19.3099H3.94348C3.20205 19.3099 2.59888 19.9216 2.59888 20.6736C2.59888 21.4254 3.20205 22.0371 3.94348 22.0371H11.2629C12.0043 22.0371 12.6075 21.4254 12.6075 20.6736C12.6075 19.9216 12.0043 19.3099 11.2629 19.3099Z" fill="white"/>
<path d="M14.9226 12.9629H1.3446C0.603177 12.9629 0 13.5746 0 14.3265C0 15.0784 0.603177 15.6901 1.3446 15.6901H14.9226C15.664 15.6901 16.2672 15.0784 16.2672 14.3265C16.2672 13.5746 15.664 12.9629 14.9226 12.9629Z" fill="white"/>
<path d="M17.5215 6.61597H3.94348C3.20205 6.61597 2.59888 7.22766 2.59888 7.97956C2.59888 8.73146 3.20205 9.3432 3.94348 9.3432H17.5215C18.2629 9.3432 18.8661 8.73146 18.8661 7.97956C18.8661 7.22766 18.2629 6.61597 17.5215 6.61597Z" fill="white"/>
</svg>
