<svg width="12" height="13" viewBox="0 0 12 13" fill="none" xmlns="http://www.w3.org/2000/svg">
<path d="M7.57907 12.7703H2.30163C1.08277 12.7703 0.0911865 11.8752 0.0911865 10.7749V4.01565C0.0911865 2.91539 1.08277 2.0203 2.30163 2.0203H7.57907C8.79794 2.0203 9.78952 2.91539 9.78952 4.01565V10.7749C9.78952 11.8752 8.79794 12.7703 7.57907 12.7703ZM2.30163 3.01798C1.69224 3.01798 1.19641 3.46556 1.19641 4.01565V10.7749C1.19641 11.325 1.69224 11.7726 2.30163 11.7726H7.57907C8.18847 11.7726 8.6843 11.325 8.6843 10.7749V4.01565C8.6843 3.46556 8.18847 3.01798 7.57907 3.01798H2.30163ZM12 9.52783V1.99536C12 0.895092 11.0084 0 9.78952 0H3.65553C3.3503 0 3.10292 0.223305 3.10292 0.498838C3.10292 0.774372 3.3503 0.997677 3.65553 0.997677H9.78952C10.3989 0.997677 10.8947 1.44526 10.8947 1.99536V9.52783C10.8947 9.80336 11.1421 10.0267 11.4474 10.0267C11.7526 10.0267 12 9.80336 12 9.52783Z" fill="#D32F2F"/>
</svg>
