<svg width="14" height="14" viewBox="0 0 14 14" fill="none" xmlns="http://www.w3.org/2000/svg">
<path d="M2.69915e-05 9.46074C-5.28096e-05 9.60207 0.0726537 9.73349 0.192416 9.80852L6.78224 13.9374C6.84886 13.9791 6.92444 14 7.00002 14C7.07559 14 7.15119 13.9791 7.21778 13.9374L13.8076 9.80852C13.9278 9.73324 14.0005 9.60123 14 9.45945C13.9995 9.31767 13.9258 9.18621 13.8051 9.1118L12.3823 8.23473L13.8066 7.34822C13.9271 7.27319 14.0003 7.14112 14 6.99913C13.9997 6.85713 13.926 6.72539 13.8051 6.65085L12.3823 5.77377L13.8066 4.88727C13.9267 4.81251 13.9998 4.68112 14 4.53967C14.0002 4.3982 13.9275 4.26659 13.8076 4.19148L7.21778 0.0625896C7.08459 -0.0208632 6.91541 -0.0208632 6.78222 0.0625896L0.192389 4.19148C0.0725119 4.26659 -0.000194675 4.3982 3.91524e-07 4.53967C0.000213192 4.68115 0.0733099 4.81254 0.193426 4.88727L1.60797 5.76768L0.192797 6.65222C0.0727601 6.72725 -0.000114877 6.85885 2.69915e-05 7.00041C0.000159991 7.14197 0.0732744 7.27344 0.193453 7.34825L1.608 8.22866L0.192797 9.11314C0.0729463 9.18806 0.000106793 9.3194 2.69915e-05 9.46074ZM7.00002 0.894218L12.8155 4.53795C12.7596 4.57273 7.16667 8.0538 7.00002 8.15754L1.18452 4.53795L7.00002 0.894218ZM2.38346 6.2504L6.78329 8.98887C6.84962 9.03016 6.92482 9.0508 7.00002 9.0508C7.07521 9.0508 7.1504 9.03016 7.21674 8.98887L11.6044 6.25795L12.811 7.00169C12.7776 7.02245 7.15396 10.5226 7.00002 10.6185L1.18521 6.99932L2.38346 6.2504ZM2.38346 8.71133L6.78329 11.4498C6.84962 11.4911 6.92482 11.5117 7.00002 11.5117C7.07521 11.5117 7.1504 11.4911 7.21674 11.4498L11.6044 8.71887L12.8128 9.4638L7.00002 13.1058L1.18338 9.46139L2.38346 8.71133Z" fill="#D32F2F"/>
</svg>
