<svg width="14" height="14" viewBox="0 0 14 14" fill="none" xmlns="http://www.w3.org/2000/svg">
<path d="M13.9742 9.34318V2.30271C13.9742 1.03294 12.9431 0 11.6757 0C10.4082 0 9.37706 1.03294 9.37706 2.30271V9.34318C9.37592 9.40169 9.38801 9.46364 9.41257 9.51876L11.0445 13.1797H1.23276C1.01358 13.1797 0.818808 13.0052 0.818808 12.7584C0.818808 12.5299 1.00459 12.3438 1.23276 12.3438H6.04949C6.72914 12.3438 7.28225 11.7897 7.28225 11.1088C7.28225 10.4278 6.72914 9.87379 6.04949 9.87379H3.48193C3.25576 9.87379 3.07253 10.0574 3.07253 10.2839C3.07253 10.5105 3.25576 10.6941 3.48193 10.6941H6.04949C6.27767 10.6941 6.46344 10.8801 6.46344 11.1088C6.46344 11.3374 6.27767 11.5235 6.04949 11.5235H1.23276C0.563632 11.5235 0 12.0641 0 12.765C0 13.446 0.552971 14 1.23276 14H11.6757C11.8453 14 11.9879 13.8992 12.0531 13.7492L13.9388 9.51876C13.9622 9.46608 13.9754 9.40454 13.9742 9.34318ZM12.5376 10.6504H10.8138L10.4176 9.76172H12.9337L12.5376 10.6504ZM11.6757 12.584L11.1794 11.4707H12.172L11.6757 12.584ZM11.2663 3.04398V8.94126H10.1959V3.04398H11.2663ZM13.1554 3.04398V8.94126H12.0851V3.04398H13.1554ZM11.6757 0.820312C12.4651 0.820312 13.112 1.4428 13.1533 2.22367H10.1981C10.2392 1.4428 10.8863 0.820312 11.6757 0.820312Z" fill="#D32F2F"/>
</svg>
