<svg width="16" height="13" viewBox="0 0 16 13" fill="none" xmlns="http://www.w3.org/2000/svg">
<path d="M15.7674 0.60438C15.5728 0.304562 15.2832 0.105608 14.9519 0.0441389C14.6205 -0.017262 14.2872 0.0660776 14.0133 0.278927C13.7397 0.491503 13.5579 0.807749 13.5015 1.16962L13.4502 1.48788C9.83253 0.865214 6.171 0.864392 2.55323 1.48528L2.49821 1.14446C2.38135 0.39728 1.73121 -0.107241 1.04788 0.0194964C0.36396 0.146405 -0.0981307 0.858437 0.0178218 1.60685L1.975 12.3389C2.03278 12.7112 2.32893 12.9753 2.66315 12.9753C2.70175 12.9753 2.74091 12.9717 2.78023 12.9644L3.88401 12.7596C4.26359 12.6892 4.52008 12.294 4.45574 11.8786L3.56834 8.04998C6.51745 7.62575 9.4862 7.62544 12.4354 8.04899L11.5441 11.9032C11.5129 12.1044 11.5551 12.3069 11.6632 12.4733C11.7712 12.6397 11.9319 12.7502 12.1158 12.7843L13.2196 12.989C13.2591 12.9964 13.2986 13 13.3378 13C13.4814 13 13.6212 12.9515 13.7406 12.8588C13.8927 12.7406 13.9936 12.5647 14.0248 12.3635L15.982 1.63149C16.0382 1.26894 15.962 0.904163 15.7674 0.60438ZM14.5565 1.11612C14.6262 1.06205 14.7109 1.04076 14.7951 1.05647C14.8792 1.07207 14.9528 1.12266 15.0023 1.19881C15.0517 1.275 15.0711 1.36768 15.0568 1.45978L15.0081 1.77374L14.3759 1.65651L14.4264 1.34283C14.4407 1.25073 14.4869 1.1702 14.5565 1.11612ZM0.943003 1.43521C0.913537 1.24502 1.03096 1.0641 1.20475 1.03186C1.37835 0.999516 1.54391 1.1281 1.57337 1.31826L1.62752 1.65367L0.99502 1.77096L0.943003 1.43521ZM3.49042 11.7912L2.86005 11.9082L2.00903 8.31444C2.21907 8.27347 2.42924 8.23493 2.63953 8.19828L3.49042 11.7912ZM1.85586 7.30105L1.15226 2.78319L2.28044 2.574C6.07169 1.871 9.91626 1.871 13.7076 2.574L14.8378 2.7836L14.1517 7.3004C10.0695 6.50592 5.93772 6.50609 1.85586 7.30105ZM13.1398 11.9328L12.5094 11.8159L13.3643 8.19705C13.5746 8.23367 13.7848 8.27204 13.9948 8.31297L13.1398 11.9328Z" fill="#D32F2F"/>
</svg>
