<svg width="16" height="12" viewBox="0 0 16 12" fill="none" xmlns="http://www.w3.org/2000/svg">
<path d="M12.2479 0.877281H11.6595V0H0V7.74111C0 10.0895 2.04346 12 4.55523 12H7.10432C9.56162 12 11.5704 10.1714 11.6563 7.89316H12.248C14.3168 7.89316 16 6.31949 16 4.38518C16 2.45086 14.3168 0.877281 12.2479 0.877281ZM11.6595 3.50693H12.2479C12.7659 3.50693 13.1873 3.90094 13.1873 4.38526C13.1873 4.86959 12.7659 5.26357 12.2479 5.26357H11.6595V3.50693ZM10.722 7.74114C10.722 9.60617 9.0991 11.1235 7.10429 11.1235H4.5552C2.56043 11.1235 0.937542 9.60617 0.937542 7.74114V0.87655H10.722V7.74114ZM12.2479 7.01664H11.6595V6.14009H12.2479C13.2829 6.14009 14.1249 5.35289 14.1249 4.38523C14.1249 3.41758 13.2829 2.63035 12.2479 2.63035H11.6595V1.7538H12.2479C13.7998 1.7538 15.0624 2.93422 15.0624 4.3852C15.0624 5.83619 13.7998 7.01664 12.2479 7.01664Z" fill="#D32F2F"/>
</svg>
