<svg width="18" height="18" viewBox="0 0 18 18" fill="none" xmlns="http://www.w3.org/2000/svg">
<path d="M5.57109 7.73772C6.0206 9.62169 8.44795 11.9542 10.246 12.4028C11.0551 12.5822 11.9541 12.1337 12.2238 11.3262C12.5834 10.16 14.1118 9.8011 15.0108 10.6982L17.528 13.2102C18.1573 13.8382 18.1573 14.9147 17.528 15.6324L15.8199 17.337C14.0219 19.1312 9.25708 17.1575 5.0317 12.941C0.806317 8.72454 -1.08159 3.96978 0.62653 2.17553L2.33465 0.470999C2.96398 -0.157 4.04278 -0.157 4.76201 0.470999L7.27924 2.98294C8.17826 3.88007 7.81865 5.40519 6.64992 5.76404C5.84078 6.03316 5.30137 6.93029 5.57109 7.73772Z" fill="#D32F2F"/>
</svg>
