<svg width="12" height="12" viewBox="0 0 12 12" fill="none" xmlns="http://www.w3.org/2000/svg">
<g clip-path="url(#clip0)">
<path d="M1.43478 2.86956L2.68696 2.86956L3.37826 1.82608C3.63913 1.43478 4.09565 1.2 4.56522 1.2L7.43478 1.2C7.90435 1.2 8.36087 1.43478 8.62174 1.82608L9.31304 2.86956L10.5652 2.86956C11.3609 2.86956 12 3.50869 12 4.30434L12 9.36521C12 10.1609 11.3609 10.8 10.5652 10.8L1.43478 10.8C0.63913 10.8 -1.2462e-07 10.1609 -1.13554e-07 9.36521L-4.31725e-08 4.30434C-3.21072e-08 3.50869 0.639131 2.86956 1.43478 2.86956ZM6 9.62608C7.78696 9.62608 9.23478 8.17826 9.23478 6.3913C9.23478 4.60434 7.78696 3.16956 6 3.16956C4.21304 3.16956 2.76522 4.61739 2.76522 6.40434C2.76522 8.17826 4.21304 9.62608 6 9.62608ZM1.61739 4.8913C1.63043 4.8913 1.64348 4.8913 1.66957 4.8913L2.19131 4.8913C2.42609 4.87826 2.6087 4.6826 2.59565 4.44782C2.58261 4.22608 2.41304 4.05652 2.19131 4.04347L1.66957 4.04347C1.43478 4.03043 1.23913 4.21304 1.22609 4.44782C1.21304 4.6826 1.38261 4.87826 1.61739 4.8913Z" fill="black"/>
<path d="M5.99981 4.60435C6.99111 4.60435 7.7998 5.41305 7.7998 6.40435C7.7998 7.39566 6.99111 8.19131 5.99981 8.19131C5.00851 8.19131 4.19981 7.38262 4.19981 6.39131C4.19981 5.40001 5.00851 4.60435 5.99981 4.60435Z" fill="black"/>
</g>
<defs>
<clipPath id="clip0">
<rect width="12" height="12" fill="white" transform="matrix(-1 -1.39071e-08 -1.39071e-08 1 12 0)"/>
</clipPath>
</defs>
</svg>
