<svg width="10" height="14" viewBox="0 0 10 14" fill="none" xmlns="http://www.w3.org/2000/svg">
<path d="M4.99986 5.59999C5.78884 5.59999 6.42843 4.97319 6.42843 4.19999C6.42843 3.42679 5.78884 2.79999 4.99986 2.79999C4.21088 2.79999 3.57129 3.42679 3.57129 4.19999C3.57129 4.97319 4.21088 5.59999 4.99986 5.59999Z" fill="#D32F2F"/>
<path d="M5 0C2.21429 0 0 2.17 0 4.9C0 7.63 5 14 5 14C5 14 10 7.63 10 4.9C10 2.17 7.78571 0 5 0ZM5 1.4C7 1.4 8.57143 2.94 8.57143 4.9C8.57143 5.95 8.07143 6.86 7.35714 7.49C6.85714 6.79 6 6.3 5 6.3C4 6.3 3.14286 6.79 2.64286 7.49C1.92857 6.86 1.42857 5.95 1.42857 4.9C1.42857 2.94 3.07143 1.4 5 1.4Z" fill="#D32F2F"/>
</svg>
