<svg width="13" height="13" viewBox="0 0 13 13" fill="none" xmlns="http://www.w3.org/2000/svg">
<path d="M0.439319 10.2444L2.587 8.10474C2.19651 7.32668 1.93619 6.41895 1.93619 5.51122C1.93619 2.46384 4.40927 0 7.46809 0C10.5269 0 13 2.46384 13 5.51122C13 8.5586 10.5269 11.0224 7.46809 11.0224C6.55696 11.0224 5.64582 10.7631 4.86484 10.3741L2.71716 12.5137C2.06635 13.1621 1.09013 13.1621 0.439319 12.5137C-0.146415 11.8653 -0.146415 10.8928 0.439319 10.2444ZM11.6984 5.51122C11.6984 3.17706 9.81102 1.29676 7.46809 1.29676C5.12517 1.29676 3.23781 3.17706 3.23781 5.51122C3.23781 7.84539 5.12517 9.72569 7.46809 9.72569C9.81102 9.72569 11.6984 7.84539 11.6984 5.51122Z" fill="#E5E5E5"/>
</svg>
