<svg width="20" height="20" viewBox="0 0 20 20" fill="none" xmlns="http://www.w3.org/2000/svg">
<path d="M19.4141 4.13776C19.7378 4.13776 20 3.87531 20 3.55182V0.585937C20 0.26224 19.7378 0 19.4141 0H16.4482C16.1247 0 15.8622 0.26224 15.8622 0.585937V1.48297H4.13776V0.585937C4.13776 0.26224 3.87531 0 3.55182 0H0.585938C0.262238 0 0 0.26224 0 0.585937V3.55182C0 3.87531 0.262238 4.13776 0.585938 4.13776H1.48297V15.8622H0.585938C0.262238 15.8622 0 16.1247 0 16.4482V19.4141C0 19.7378 0.262238 20 0.585938 20H3.55182C3.87531 20 4.13776 19.7378 4.13776 19.4141V18.517H15.8622V19.4141C15.8622 19.7378 16.1247 20 16.4482 20H19.4141C19.7378 20 20 19.7378 20 19.4141V16.4482C20 16.1247 19.7378 15.8622 19.4141 15.8622H18.517V4.13776H19.4141ZM17.0341 1.17187H18.8281V2.96589H17.0341V1.17187ZM1.17188 1.17187H2.96589V2.96589H1.17188V1.17187ZM2.96589 18.8281H1.17188V17.0341H2.96589V18.8281ZM18.8281 18.8281H17.0341V17.0341H18.8281V18.8281ZM17.3452 15.8622H16.4484C16.1247 15.8622 15.8624 16.1247 15.8624 16.4482V17.3452H4.13776V16.4482C4.13776 16.1247 3.87531 15.8622 3.55182 15.8622H2.65484V4.13776H3.55161C3.87531 4.13776 4.13755 3.87531 4.13755 3.55182V2.65484H15.8622V3.55161C15.8622 3.87531 16.1247 4.13755 16.4482 4.13755H17.3452V15.8622Z" fill="#D32F2F"/>
<path d="M14.1992 5.35785H5.80078C5.47729 5.35785 5.21484 5.6203 5.21484 5.94379V8.07452C5.21484 8.39801 5.47729 8.66045 5.80078 8.66045C6.12448 8.66045 6.38672 8.39801 6.38672 8.07452V6.52972H9.41406V13.5484H8.32214C7.99865 13.5484 7.7362 13.8106 7.7362 14.1343C7.7362 14.4578 7.99865 14.7202 8.32214 14.7202H11.6777C12.0014 14.7202 12.2636 14.4578 12.2636 14.1343C12.2636 13.8106 12.0014 13.5484 11.6777 13.5484H10.5859V6.52972H13.6133V8.07452C13.6133 8.39801 13.8755 8.66045 14.1992 8.66045C14.5227 8.66045 14.7852 8.39801 14.7852 8.07452V5.94379C14.7852 5.6203 14.5227 5.35785 14.1992 5.35785Z" fill="#D32F2F"/>
</svg>
