<svg width="25" height="23" viewBox="0 0 25 23" fill="none" xmlns="http://www.w3.org/2000/svg">
<path d="M23.0349 0L6.37689 0C5.29329 0 4.41185 0.861862 4.41185 1.92088L4.41185 8.62505H1.9651C0.881443 8.62505 0 9.48666 0 10.5459L0 21.0791C0 22.1381 0.881443 23 1.9651 23L18.6231 23C19.7067 23 20.5881 22.1381 20.5881 21.0791V14.375H23.0349C24.1186 14.375 25 13.5133 25 12.4541L25 1.92088C25 0.861862 24.1186 0 23.0349 0ZM6.37689 1.4376L23.0349 1.4376C23.3075 1.4376 23.5293 1.65436 23.5293 1.92088V2.87495L5.88229 2.87495L5.88229 1.92088C5.88229 1.65436 6.1043 1.4376 6.37689 1.4376ZM23.5293 4.31255V5.7501L5.88229 5.7501V4.31255L23.5293 4.31255ZM19.1177 21.0791C19.1177 21.3456 18.8957 21.5624 18.6231 21.5624L1.9651 21.5624C1.69245 21.5624 1.4707 21.3456 1.4707 21.0791L1.4707 10.5459C1.4707 10.2794 1.69245 10.0624 1.9651 10.0624L18.6231 10.0624C18.8957 10.0624 19.1177 10.2794 19.1177 10.5459L19.1177 21.0791ZM23.0349 12.9376H20.5881L20.5881 10.5459C20.5881 9.48666 19.7067 8.62505 18.6231 8.62505L5.88229 8.62505L5.88229 7.18744L23.5293 7.18744L23.5293 12.4541C23.5293 12.7206 23.3075 12.9376 23.0349 12.9376Z" fill="white"/>
<path d="M7.59813 14.2626C7.59813 13.532 6.99006 12.9376 6.2424 12.9376H4.29689C3.54924 12.9376 2.94116 13.532 2.94116 14.2626L2.94116 15.9249C2.94116 16.6555 3.54924 17.2499 4.29689 17.2499H6.2424C6.99006 17.2499 7.59813 16.6555 7.59813 15.9249L7.59813 14.2626ZM6.12743 15.8125H4.41187V14.3749H6.12743V15.8125Z" fill="white"/>
<path d="M5.88231 18.6874H2.94116L2.94116 20.125H5.88231V18.6874Z" fill="white"/>
<path d="M10.2941 18.6874H7.35291V20.125H10.2941V18.6874Z" fill="white"/>
<path d="M14.7059 18.6874H11.7648V20.125H14.7059V18.6874Z" fill="white"/>
<path d="M17.6471 18.6874H16.1764V20.125H17.6471V18.6874Z" fill="white"/>
</svg>
