<svg width="20" height="20" viewBox="0 0 20 20" fill="none" xmlns="http://www.w3.org/2000/svg">
<g clip-path="url(#clip0)">
<path d="M18.5598 10.2591C18.478 10.0944 18.478 9.90558 18.5598 9.74098L19.3178 8.21503C19.7398 7.36539 19.4054 6.35268 18.5566 5.90946L17.032 5.11338C16.8675 5.02752 16.7548 4.87472 16.7226 4.69427L16.4244 3.02128C16.2584 2.08982 15.3829 1.46388 14.4316 1.59635L12.7227 1.83424C12.5383 1.85985 12.3559 1.80152 12.2221 1.67413L10.9817 0.4932C10.291 -0.164381 9.20898 -0.164419 8.51837 0.4932L7.27794 1.67417C7.14408 1.80159 6.9617 1.85985 6.77729 1.83428L5.06845 1.59638C4.11685 1.46385 3.24164 2.08986 3.0756 3.02132L2.77741 4.69423C2.74522 4.87472 2.63246 5.02748 2.46802 5.11338L0.943463 5.90946C0.0946262 6.35268 -0.239736 7.36543 0.18226 8.21507L0.940181 9.74098C1.02195 9.90562 1.02195 10.0945 0.940181 10.2591L0.182221 11.785C-0.239775 12.6346 0.0945871 13.6474 0.943424 14.0906L2.46798 14.8867C2.63246 14.9725 2.74522 15.1253 2.77741 15.3058L3.0756 16.9788C3.22676 17.8267 3.96557 18.4214 4.81468 18.4213C4.89833 18.4213 4.98319 18.4156 5.06848 18.4037L6.77733 18.1658C6.96163 18.1401 7.14412 18.1985 7.27798 18.3259L8.51837 19.5068C8.86375 19.8357 9.30681 20 9.75002 20C10.1931 20 10.6364 19.8356 10.9817 19.5068L12.2221 18.3259C12.356 18.1985 12.5384 18.1403 12.7227 18.1658L14.4316 18.4037C15.3833 18.5362 16.2584 17.9102 16.4244 16.9788L16.7226 15.3058C16.7548 15.1254 16.8676 14.9726 17.032 14.8867L18.5566 14.0906C19.4054 13.6474 19.7398 12.6346 19.3178 11.785L18.5598 10.2591ZM17.5068 10.7656L18.2648 12.2916C18.4075 12.579 18.2944 12.9216 18.0072 13.0716L16.4827 13.8677C15.9966 14.1215 15.6632 14.573 15.5681 15.1065L15.27 16.7794C15.2138 17.0946 14.9177 17.3063 14.5957 17.2615L12.8869 17.0236C12.3419 16.9476 11.8026 17.1202 11.4071 17.4968L10.1667 18.6777C9.93306 18.9002 9.56702 18.9002 9.3333 18.6777L8.0929 17.4968C7.75862 17.1785 7.32162 17.0061 6.8654 17.0061C6.78179 17.0061 6.69755 17.0119 6.61316 17.0236L4.90431 17.2615C4.58257 17.3063 4.28626 17.0946 4.23008 16.7794L3.9319 15.1064C3.8368 14.573 3.50345 14.1215 3.01734 13.8677L1.49279 13.0716C1.20559 12.9216 1.09248 12.579 1.23524 12.2916L1.9932 10.7656C2.23485 10.2791 2.23485 9.72098 1.9932 9.23443L1.23524 7.70848C1.09248 7.42102 1.20559 7.07839 1.49279 6.92843L3.01734 6.13235C3.50342 5.8785 3.83676 5.42702 3.93186 4.89355L4.23004 3.22061C4.28622 2.90547 4.58226 2.69372 4.90427 2.73852L6.61312 2.97641C7.15788 3.05231 7.69736 2.87978 8.09286 2.50324L9.3333 1.32231C9.56694 1.09987 9.93299 1.09987 10.1667 1.32231L11.4071 2.50324C11.8026 2.87978 12.342 3.05231 12.8868 2.97641L14.5957 2.73852C14.9175 2.69372 15.2138 2.90547 15.2699 3.22061L15.5681 4.89359C15.6632 5.42702 15.9965 5.87854 16.4827 6.13235L18.0072 6.92843C18.2944 7.07839 18.4075 7.42102 18.2648 7.70848L17.5068 9.23443C17.2652 9.72094 17.2652 10.2791 17.5068 10.7656Z" fill="#D32F2F"/>
<path d="M14.0321 5.78577C13.8032 5.56053 13.4322 5.56053 13.2033 5.78577L5.4678 13.3986C5.23892 13.6238 5.23892 13.989 5.4678 14.2142C5.58223 14.3269 5.73222 14.3832 5.88217 14.3832C6.03213 14.3832 6.18215 14.3269 6.29655 14.2142L14.032 6.60142C14.261 6.37618 14.261 6.01101 14.0321 5.78577Z" fill="#D32F2F"/>
<path d="M7.40569 9.03875C8.59057 9.03875 9.55455 8.09006 9.55455 6.92397C9.55455 5.75788 8.59057 4.80919 7.40569 4.80919C6.22081 4.80919 5.25684 5.75788 5.25684 6.92397C5.25684 8.09006 6.22081 9.03875 7.40569 9.03875ZM7.40569 5.96271C7.94427 5.96271 8.38244 6.39393 8.38244 6.92397C8.38244 7.45401 7.94427 7.88523 7.40569 7.88523C6.86711 7.88523 6.42894 7.45401 6.42894 6.92397C6.42894 6.39393 6.86711 5.96271 7.40569 5.96271Z" fill="#D32F2F"/>
<path d="M12.0942 10.9613C10.9093 10.9613 9.94531 11.91 9.94531 13.0761C9.94531 14.2421 10.9093 15.1908 12.0942 15.1908C13.279 15.1908 14.243 14.2421 14.243 13.0761C14.243 11.91 13.279 10.9613 12.0942 10.9613ZM12.0942 14.0373C11.5556 14.0373 11.1174 13.6061 11.1174 13.0761C11.1174 12.546 11.5556 12.1148 12.0942 12.1148C12.6327 12.1148 13.0709 12.546 13.0709 13.0761C13.0709 13.6061 12.6327 14.0373 12.0942 14.0373Z" fill="#D32F2F"/>
</g>
<defs>
<clipPath id="clip0">
<rect width="19.5" height="20" fill="white"/>
</clipPath>
</defs>
</svg>
