<svg width="21" height="21" viewBox="0 0 21 21" fill="none" xmlns="http://www.w3.org/2000/svg">
<g clip-path="url(#clip0)">
<path d="M8.69532 7.50585C9.14837 7.50585 9.51563 7.8731 9.51563 8.32616C9.51563 8.77921 9.14837 9.14647 8.69532 9.14647C8.24226 9.14647 7.87501 8.77921 7.87501 8.32616C7.87501 7.8731 8.2423 7.50585 8.69532 7.50585ZM11.1562 8.32616C11.1562 8.77921 11.5235 9.14647 11.9766 9.14647C12.4296 9.14647 12.7969 8.77921 12.7969 8.32616C12.7969 7.8731 12.4296 7.50585 11.9766 7.50585C11.5235 7.50585 11.1562 7.8731 11.1562 8.32616ZM14.4375 8.32616C14.4375 8.77921 14.8047 9.14647 15.2578 9.14647C15.7109 9.14647 16.0781 8.77921 16.0781 8.32616C16.0781 7.8731 15.7109 7.50585 15.2578 7.50585C14.8047 7.50585 14.4375 7.8731 14.4375 8.32616ZM20.9402 16.837C21.0653 17.1466 20.9904 17.501 20.7506 17.7334C20.5944 17.8849 20.3885 17.9648 20.1795 17.9649C20.0678 17.9649 19.9552 17.942 19.8487 17.8951L15.4477 15.9551C14.8953 16.1663 14.326 16.3243 13.7437 16.4289C13.1472 17.4099 12.2964 18.2406 11.262 18.8454C10.1073 19.5204 8.77398 19.8812 7.40255 19.8916C7.38241 19.893 7.36227 19.8946 7.34176 19.8946C6.39357 19.8946 5.47494 19.7309 4.60591 19.4074L1.15121 20.9303C1.04482 20.9772 0.932187 21 0.820502 21C0.611446 21 0.405589 20.9201 0.249361 20.7686C0.00962498 20.5362 -0.0653104 20.1817 0.059828 19.8722L1.25797 16.9083C0.433273 15.7854 2.64024e-05 14.4807 2.64024e-05 13.1055C2.64024e-05 10.9041 1.14169 8.8603 3.06766 7.58488C3.2453 5.62356 4.16109 3.8046 5.69228 2.40318C7.38553 0.853492 9.63186 0 12.0176 0C14.4033 0 16.6497 0.853492 18.3429 2.40322C20.0564 3.97145 21 6.06234 21 8.29072C21 8.65949 20.9677 9.07924 20.909 9.47258C20.8421 9.92068 20.4247 10.2299 19.9766 10.1629C19.5285 10.096 19.2194 9.6786 19.2863 9.23051C19.3327 8.91936 19.3594 8.5768 19.3594 8.29072C19.3594 4.62385 16.0658 1.64062 12.0176 1.64062C7.9693 1.64062 4.6758 4.62385 4.6758 8.29072C4.6758 11.5023 7.62592 14.9408 12.0176 14.9408C13.1087 14.9408 14.1592 14.7287 15.1398 14.3103C15.3486 14.2212 15.585 14.2226 15.7927 14.3142L18.662 15.5791L17.6959 13.1892C17.5261 12.7692 17.729 12.2911 18.149 12.1213C18.569 11.9514 19.0472 12.1544 19.217 12.5743L20.9402 16.837ZM11.5515 16.5704C9.27905 16.4636 7.17454 15.5765 5.58351 14.0453C4.30493 12.8147 3.45735 11.2483 3.15695 9.61072C2.1921 10.5525 1.64065 11.7946 1.64065 13.1055C1.64065 14.2509 2.04896 15.3353 2.82148 16.2416C3.01975 16.4742 3.07229 16.7978 2.95774 17.0812L2.33803 18.6142L4.25908 17.7674C4.46678 17.6758 4.70315 17.6743 4.91188 17.7635C5.6648 18.0847 6.471 18.2493 7.30862 18.2536C7.31974 18.2531 7.33065 18.2519 7.34184 18.2519C8.95786 18.2519 10.4846 17.6206 11.5515 16.5704Z" fill="#D32F2F"/>
</g>
<defs>
<clipPath id="clip0">
<rect width="21" height="21" fill="white"/>
</clipPath>
</defs>
</svg>
