<svg width="20" height="20" viewBox="0 0 20 20" fill="none" xmlns="http://www.w3.org/2000/svg">
<path d="M0.199169 8.44445L2.92234 6.04372V3.29429C2.92234 2.96961 3.18583 2.70612 3.51052 2.70612H6.70859L9.61099 0.147315C9.83339 -0.0487795 10.1666 -0.0487795 10.389 0.147315L13.2914 2.70612H16.4895C16.8142 2.70612 17.0777 2.96961 17.0777 3.29429V6.04372L19.8008 8.44445C19.9215 8.56471 20 8.68674 20 8.88575V19.4121C20 19.73 19.7418 20.0002 19.4118 20.0002H0.588177C0.25901 20.0002 0 19.7321 0 19.4121V8.88575C0 8.69304 0.0797405 8.56346 0.199169 8.44445ZM1.17656 18.0481L6.21011 13.2979C6.06912 13.2048 1.25979 10.0332 1.17656 9.97825V18.0481ZM18.4454 8.8182C17.7297 8.1869 18.0424 8.46273 17.0777 7.61231V9.72028C17.8536 9.20903 18.0308 9.09164 18.4454 8.8182ZM15.9011 3.88268H4.09891V10.4962C8.75469 13.5669 8.02188 13.0837 10 14.388C12.0217 13.055 14.602 11.3532 15.9011 10.4962C15.9011 7.93705 15.9011 6.11716 15.9011 3.88268ZM10 1.37273L8.48755 2.70612H11.5124L10 1.37273ZM1.55458 8.8182C1.96271 9.08737 2.16005 9.21794 2.92234 9.72028C2.92234 9.47226 2.92234 7.86216 2.92234 7.61231C1.95781 8.46273 2.27031 8.18711 1.55458 8.8182ZM18.8234 9.97825C18.8227 9.97888 13.9168 13.2139 13.7899 13.2979L18.8234 18.0481V9.97825ZM12.7808 13.9635L10.3239 15.5837C10.1268 15.7133 9.87323 15.7135 9.6761 15.5837L7.21922 13.9635L2.0687 18.8237H17.9313L12.7808 13.9635Z" fill="#D32F2F"/>
</svg>
