<svg width="18" height="18" viewBox="0 0 18 18" fill="none" xmlns="http://www.w3.org/2000/svg">
<path d="M17.5197 17.2136C17.1133 17.7134 16.5107 18 15.8663 18H12.6914C12.3031 18 11.9883 17.6852 11.9883 17.2969C11.9883 16.9085 12.3031 16.5938 12.6914 16.5938H15.8663C16.1664 16.5938 16.3475 16.4262 16.4287 16.3264C16.569 16.1539 16.6233 15.9294 16.5777 15.7105C16.4985 15.3303 16.7425 14.958 17.1227 14.8788C17.5028 14.7997 17.8752 15.0437 17.9544 15.4238C18.0866 16.059 17.9282 16.7113 17.5197 17.2136ZM11.0578 15.7043C11.1092 15.9385 11.0378 16.1828 10.8682 16.3524L9.46206 17.7589C9.33019 17.8907 9.15135 17.9648 8.96484 17.9648C8.7783 17.9648 8.59943 17.8908 8.46759 17.7589L7.06127 16.3524C6.89171 16.1828 6.82027 15.9385 6.87171 15.7043L8.21401 9.5973C4.90204 9.93772 2.11077 12.4034 1.42227 15.7104C1.37667 15.9294 1.43095 16.1539 1.57119 16.3264C1.65244 16.4262 1.83349 16.5938 2.13366 16.5938H5.20312C5.59146 16.5938 5.90625 16.9085 5.90625 17.2969C5.90625 17.6852 5.59146 18 5.20312 18H2.13373C1.48935 18 0.886664 17.7134 0.480257 17.2136C0.0718108 16.7113 -0.0866387 16.059 0.0456194 15.4238C0.4676 13.3969 1.58547 11.5522 3.19323 10.2297C4.0701 9.5085 5.07206 8.96186 6.13979 8.61036C4.97432 7.73761 4.21874 6.34602 4.21874 4.78125C4.21874 2.14485 6.36363 0 9 0C11.6364 0 13.7813 2.14485 13.7813 4.78125C13.7813 6.345 13.0266 7.73578 11.8624 8.60868C13.7727 9.23734 15.4482 10.4883 16.6019 12.2091C16.8182 12.5316 16.732 12.9684 16.4095 13.1847C16.087 13.401 15.6501 13.3148 15.4339 12.9922C14.1252 11.0404 12.0239 9.8023 9.71388 9.58954L11.0578 15.7043ZM8.8355 8.15221C8.89031 8.15122 8.94512 8.15041 9 8.15041C9.05593 8.15041 9.11176 8.15108 9.16752 8.1521C10.951 8.06446 12.375 6.58607 12.375 4.78125C12.375 2.92025 10.861 1.40625 9 1.40625C7.139 1.40625 5.62499 2.92025 5.62499 4.78125C5.62499 6.58709 7.05062 8.06611 8.8355 8.15221ZM9.60166 15.6303L8.96481 12.7325L8.32788 15.6302L8.96481 16.2673L9.60166 15.6303Z" fill="#D32F2F"/>
</svg>
