<svg width="25" height="18" viewBox="0 0 25 18" fill="none" xmlns="http://www.w3.org/2000/svg">
<g clip-path="url(#clip0)">
<path d="M2.92645 15.1064H5.09177L5.11623 15.1991C5.4738 16.5538 6.68894 17.5 8.07125 17.5C9.45353 17.5 10.6687 16.5538 11.0262 15.1991L11.0507 15.1064H15.9648L15.9892 15.1991C16.3468 16.5538 17.5619 17.5 18.9442 17.5C20.3266 17.5 21.5417 16.5538 21.8993 15.1991L21.9237 15.1064H24.3277C24.6984 15.1064 25 14.8006 25 14.4246V9.18034C25 9.02969 24.9499 8.88118 24.8588 8.76212L23.283 6.70401L23.3084 6.69114L20.9772 1.98908C20.8622 1.75754 20.6319 1.61365 20.3763 1.61365H16.8585V0.681797C16.8585 0.305848 16.5569 0 16.1862 0H2.92645C2.55574 0 2.25415 0.305848 2.25415 0.681797C2.25415 1.05775 2.55574 1.36362 2.92645 1.36362H15.5139V7.13636C15.5139 7.51231 15.8155 7.81819 16.1862 7.81819H22.4338L23.6554 9.41396V13.7429H21.9358L21.9125 13.6481C21.5721 12.2629 20.3515 11.2955 18.9442 11.2955C17.5369 11.2955 16.3163 12.2629 15.976 13.6481L15.9527 13.7429H11.0627L11.0395 13.6481C10.6992 12.2629 9.47859 11.2955 8.07125 11.2955C6.66387 11.2955 5.44332 12.2629 5.10301 13.6481L5.07973 13.7429H2.92645C2.55574 13.7429 2.25415 14.0487 2.25415 14.4246C2.25415 14.8006 2.55574 15.1064 2.92645 15.1064ZM16.8585 6.45457V2.97724H19.9616L21.6856 6.45457H16.8585ZM18.9442 12.6591C19.8896 12.6591 20.6587 13.4391 20.6587 14.3978C20.6587 15.3565 19.8896 16.1364 18.9442 16.1364C17.9989 16.1364 17.2298 15.3565 17.2298 14.3978C17.2298 13.4391 17.9989 12.6591 18.9442 12.6591ZM8.07125 12.6591C9.01658 12.6591 9.78567 13.4391 9.78567 14.3978C9.78567 15.3565 9.01658 16.1364 8.07125 16.1364C7.12589 16.1364 6.3568 15.3565 6.3568 14.3978C6.3568 13.4391 7.12589 12.6591 8.07125 12.6591Z" fill="#D32F2F"/>
<path d="M5.63156 9.65495H1.97186C1.60115 9.65495 1.29956 9.9608 1.29956 10.3368C1.29956 10.7127 1.60115 11.0186 1.97186 11.0186H5.63156C6.00228 11.0186 6.30386 10.7127 6.30386 10.3368C6.30386 9.9608 6.00228 9.65495 5.63156 9.65495Z" fill="#D32F2F"/>
<path d="M7.46129 6.48146H0.672302C0.301588 6.48146 0 6.78733 0 7.16328C0 7.53923 0.301588 7.84508 0.672302 7.84508H7.46129C7.832 7.84508 8.13361 7.53923 8.13361 7.16328C8.13361 6.78733 7.832 6.48146 7.46129 6.48146Z" fill="#D32F2F"/>
<path d="M8.76085 3.30797H1.97186C1.60115 3.30797 1.29956 3.61382 1.29956 3.98976C1.29956 4.36571 1.60115 4.67159 1.97186 4.67159H8.76085C9.13156 4.67159 9.43317 4.36571 9.43317 3.98976C9.43317 3.61382 9.13156 3.30797 8.76085 3.30797Z" fill="#D32F2F"/>
</g>
<defs>
<clipPath id="clip0">
<rect width="25" height="17.5" fill="white"/>
</clipPath>
</defs>
</svg>
