<svg width="22" height="22" viewBox="0 0 22 22" fill="none" xmlns="http://www.w3.org/2000/svg">
<path d="M11 0C4.92487 0 0 4.92487 0 11C0 17.0751 4.92487 22 11 22C17.0751 22 22 17.0751 22 11C22 4.92487 17.0751 0 11 0ZM13.6729 15.3008C13.8834 15.483 13.9064 15.8014 13.7243 16.012C13.5421 16.2225 13.2237 16.2455 13.0131 16.0633C13.0081 16.059 13.0032 16.0545 12.9983 16.05L7.95689 11.5127C7.75002 11.3263 7.73338 11.0076 7.91973 10.8007C7.93146 10.7877 7.94387 10.7753 7.95689 10.7635L12.9983 6.22623C13.2015 6.03587 13.5206 6.04628 13.7109 6.24947C13.9013 6.45267 13.8909 6.7717 13.6877 6.96206C13.6828 6.9666 13.6779 6.97105 13.6729 6.97539L9.05038 11.1381L13.6729 15.3008Z" fill="white"/>
</svg>
