<svg width="34" height="34" viewBox="0 0 34 34" fill="none" xmlns="http://www.w3.org/2000/svg">
<path d="M17 0C7.61116 0 0 7.61116 0 17C0 26.3888 7.61116 34 17 34C26.3888 34 34 26.3888 34 17C34 7.61116 26.3888 0 17 0ZM21.1308 23.6468C21.4562 23.9283 21.4918 24.4203 21.2102 24.7457C20.9287 25.0712 20.4366 25.1067 20.1112 24.8251C20.1035 24.8184 20.0958 24.8116 20.0883 24.8045L12.297 17.7923C11.9773 17.5043 11.9516 17.0117 12.2396 16.692C12.2577 16.6719 12.2769 16.6527 12.297 16.6346L20.0883 9.62236C20.4024 9.32817 20.8954 9.34425 21.1896 9.65827C21.4838 9.9723 21.4677 10.4654 21.1537 10.7596C21.1462 10.7666 21.1386 10.7734 21.1308 10.7802L13.987 17.2135L21.1308 23.6468Z" fill="black"/>
</svg>
