<svg width="22" height="22" viewBox="0 0 22 22" fill="none" xmlns="http://www.w3.org/2000/svg">
<g clip-path="url(#clip0)">
<path d="M11 22C17.0751 22 22 17.0751 22 11C22 4.92487 17.0751 -1.4768e-06 11 -9.45698e-07C4.92487 -4.14593e-07 4.14593e-07 4.92487 9.45698e-07 11C1.4768e-06 17.0751 4.92487 22 11 22ZM8.32711 6.69916C8.11656 6.51698 8.09356 6.1986 8.27574 5.98805C8.45792 5.77749 8.7763 5.75449 8.98685 5.93667C8.99188 5.94102 8.99681 5.94546 9.00166 5.95L14.0431 10.4873C14.25 10.6737 14.2666 10.9924 14.0803 11.1993C14.0685 11.2123 14.0561 11.2247 14.0431 11.2365L9.00166 15.7738C8.79847 15.9641 8.47943 15.9537 8.28907 15.7505C8.09871 15.5473 8.10912 15.2283 8.31231 15.0379C8.31716 15.0334 8.32209 15.029 8.32712 15.0246L12.9496 10.8619L8.32711 6.69916Z" fill="white"/>
</g>
<defs>
<clipPath id="clip0">
<rect width="22" height="22" fill="white" transform="translate(22 22) rotate(180)"/>
</clipPath>
</defs>
</svg>
