<svg width="34" height="34" viewBox="0 0 34 34" fill="none" xmlns="http://www.w3.org/2000/svg">
<g clip-path="url(#clip0)">
<path d="M17 34C26.3888 34 34 26.3888 34 17C34 7.61116 26.3888 6.65389e-07 17 1.48619e-06C7.61116 2.30699e-06 -2.30699e-06 7.61116 -1.48619e-06 17C-6.65389e-07 26.3888 7.61116 34 17 34ZM12.8692 10.3533C12.5438 10.0717 12.5082 9.57966 12.7898 9.25425C13.0713 8.92885 13.5634 8.8933 13.8888 9.17486C13.8965 9.18157 13.9042 9.18844 13.9117 9.19546L21.703 16.2077C22.0227 16.4957 22.0484 16.9883 21.7604 17.308C21.7423 17.3281 21.7231 17.3473 21.703 17.3654L13.9117 24.3776C13.5976 24.6718 13.1046 24.6558 12.8104 24.3417C12.5162 24.0277 12.5323 23.5346 12.8463 23.2405C12.8538 23.2334 12.8614 23.2266 12.8692 23.2199L20.013 16.7865L12.8692 10.3533Z" fill="black"/>
</g>
<defs>
<clipPath id="clip0">
<rect width="34" height="34" fill="white" transform="translate(34 34) rotate(180)"/>
</clipPath>
</defs>
</svg>
