<svg width="16" height="16" viewBox="0 0 16 16" fill="none" xmlns="http://www.w3.org/2000/svg">
<g opacity="0.4">
<path d="M12.8058 14.7503C12.9746 14.7503 13.145 14.7138 13.3069 14.6394C13.7344 14.4427 14 14.0283 14 13.5577V12.2497H14.5625C15.3551 12.2497 16 11.6048 16 10.8122V2.68716C16 1.89454 15.3551 1.24966 14.5625 1.24966H1.4375C0.644875 1.24966 0 1.89454 0 2.68716V10.8122C0 11.6048 0.644875 12.2497 1.4375 12.2497H9.79459L12.0084 14.4377C12.0168 14.446 12.0255 14.454 12.0345 14.4617C12.2565 14.652 12.5288 14.7503 12.8058 14.7503ZM14.5625 2.24966C14.8038 2.24966 15 2.44591 15 2.68716V10.8122C15 11.0534 14.8038 11.2497 14.5625 11.2497H13.5C13.2239 11.2497 13 11.4735 13 11.7497V13.5577C13 13.6639 12.9305 13.7118 12.889 13.7309C12.8492 13.7492 12.7726 13.7698 12.6952 13.7105L10.3515 11.3941C10.2579 11.3016 10.1316 11.2497 10 11.2497H1.4375C1.19625 11.2497 1 11.0534 1 10.8122V2.68719C1 2.44594 1.19625 2.24969 1.4375 2.24969H14.5625V2.24966Z" fill="black"/>
<path d="M5.99144 10.2497C6.07178 10.2497 6.15237 10.2303 6.22606 10.1912L8 9.24828L9.77393 10.1912C9.94221 10.2806 10.1467 10.2667 10.3012 10.1551C10.4557 10.0436 10.5334 9.85394 10.5016 9.66606L10.1615 7.66166L11.601 6.2431C11.7361 6.10994 11.7842 5.91182 11.7252 5.73154C11.6662 5.55125 11.5103 5.41985 11.3227 5.39229L9.33793 5.10069L8.44934 3.28035C8.3655 3.1086 8.19112 2.99969 8.00003 2.99969C7.80893 2.99969 7.63453 3.10863 7.55071 3.28035L6.66212 5.10069L4.67738 5.39229C4.48972 5.41985 4.33378 5.55125 4.27485 5.73154C4.21588 5.91182 4.264 6.10994 4.39909 6.2431L5.83853 7.66166L5.4985 9.66606C5.46662 9.85394 5.54431 10.0436 5.69884 10.1551C5.78566 10.2178 5.88831 10.2497 5.99144 10.2497ZM8 8.18203C7.91934 8.18203 7.83868 8.20153 7.76531 8.24053L6.65437 8.83103L6.86793 7.57203C6.89525 7.41107 6.84225 7.24688 6.72597 7.13228L5.81619 6.23572L7.06837 6.05175C7.23168 6.02775 7.37262 5.92472 7.44503 5.77638L8 4.63947L8.55496 5.77638C8.62737 5.92472 8.76831 6.02775 8.93162 6.05175L10.1838 6.23572L9.27403 7.13228C9.15774 7.24688 9.10474 7.41107 9.13206 7.57203L9.34562 8.83103L8.23468 8.24053C8.16131 8.20153 8.08065 8.18203 8 8.18203Z" fill="black"/>
</g>
</svg>
