<svg width="13" height="13" viewBox="0 0 13 13" fill="none" xmlns="http://www.w3.org/2000/svg">
<g clip-path="url(#clip0)">
<path d="M7.3124 3.25508H5.41572C5.12119 3.25508 4.88252 3.49375 4.88252 3.78828V5.9668H4.33154C4.03701 5.9668 3.79834 6.20547 3.79834 6.5C3.79834 6.79453 4.03701 7.03321 4.33154 7.03321H4.88252V7.5918H4.33154C4.03701 7.5918 3.79834 7.83047 3.79834 8.125C3.79834 8.41953 4.03701 8.65821 4.33154 8.65821H4.88252V9.20918C4.88252 9.50371 5.12119 9.74239 5.41572 9.74239C5.71025 9.74239 5.94893 9.50371 5.94893 9.20918V8.65821H7.04072C7.33525 8.65821 7.57393 8.41953 7.57393 8.125C7.57393 7.83047 7.33525 7.5918 7.04072 7.5918H5.94893V7.03321H7.3124C8.35342 7.03321 9.20146 6.18516 9.20146 5.14414C9.20146 4.10313 8.35596 3.25508 7.3124 3.25508ZM7.3124 5.9668H5.94893V4.32403H7.3124C7.76436 4.32403 8.13506 4.69219 8.13506 5.14668C8.13506 5.60117 7.76689 5.9668 7.3124 5.9668Z" fill="#D32F2F"/>
<path d="M11.1211 1.92969C9.89473 0.700781 8.26211 0.0253906 6.52539 0.0253906C4.78867 0.0253906 3.15605 0.700781 1.92969 1.92969C0.700781 3.15605 0.0253906 4.78867 0.0253906 6.52539C0.0253906 8.26211 0.700781 9.89473 1.92969 11.1211C3.15859 12.35 4.78867 13.0254 6.52539 13.0254C7.71367 13.0254 8.87656 12.7004 9.88965 12.0885C10.1283 11.9438 10.207 11.6314 10.0598 11.3902C9.91504 11.1516 9.60273 11.0729 9.36152 11.2201C8.5084 11.7355 7.52832 12.0098 6.52539 12.0098C3.50137 12.0098 1.04102 9.54941 1.04102 6.52539C1.04102 3.50137 3.50137 1.04102 6.52539 1.04102C9.54941 1.04102 12.0098 3.50137 12.0098 6.52539C12.0098 7.60703 11.6873 8.6582 11.0805 9.56973C10.9256 9.80332 10.9865 10.1182 11.2201 10.273C11.4537 10.4279 11.7686 10.367 11.9234 10.1334C12.6445 9.05684 13.0254 7.80762 13.0254 6.52539C13.0254 4.78867 12.35 3.15605 11.1211 1.92969Z" fill="#D32F2F"/>
</g>
<defs>
<clipPath id="clip0">
<rect width="13" height="13" fill="white"/>
</clipPath>
</defs>
</svg>
