<svg width="16" height="14" viewBox="0 0 16 14" fill="none" xmlns="http://www.w3.org/2000/svg">
<path d="M12.8058 13.7503C12.9746 13.7503 13.145 13.7138 13.3069 13.6394C13.7344 13.4427 14 13.0282 14 12.5576V11.2496H14.5625C15.3551 11.2496 16 10.6048 16 9.81215V1.68716C16 0.894531 15.3551 0.249657 14.5625 0.249657H1.4375C0.644875 0.249657 0 0.894531 0 1.68716V9.81215C0 10.6048 0.644875 11.2496 1.4375 11.2496H9.79459L12.0084 13.4377C12.0168 13.446 12.0255 13.454 12.0345 13.4617C12.2565 13.652 12.5288 13.7503 12.8058 13.7503ZM14.5625 1.24966C14.8038 1.24966 15 1.44591 15 1.68716V9.81215C15 10.0534 14.8038 10.2497 14.5625 10.2497H13.5C13.2239 10.2497 13 10.4735 13 10.7497V12.5576C13 12.6639 12.9305 12.7118 12.889 12.7309C12.8492 12.7491 12.7726 12.7698 12.6952 12.7105L10.3515 10.3941C10.2579 10.3016 10.1316 10.2497 10 10.2497H1.4375C1.19625 10.2497 1 10.0534 1 9.81218V1.68719C1 1.44594 1.19625 1.24969 1.4375 1.24969H14.5625V1.24966Z" fill="#D32F2F"/>
<path d="M5.99144 9.24965C6.07178 9.24965 6.15237 9.23031 6.22606 9.19115L8 8.24828L9.77393 9.19118C9.94221 9.28062 10.1467 9.26665 10.3012 9.15512C10.4557 9.04359 10.5334 8.85393 10.5016 8.66606L10.1615 6.66165L11.601 5.24309C11.7361 5.10993 11.7842 4.91181 11.7252 4.73153C11.6662 4.55125 11.5103 4.41984 11.3227 4.39228L9.33793 4.10069L8.44934 2.28034C8.3655 2.10859 8.19112 1.99969 8.00003 1.99969C7.80893 1.99969 7.63453 2.10862 7.55071 2.28034L6.66212 4.10069L4.67738 4.39228C4.48972 4.41984 4.33378 4.55125 4.27485 4.73153C4.21588 4.91181 4.264 5.10993 4.39909 5.24309L5.83853 6.66165L5.4985 8.66606C5.46662 8.85393 5.54431 9.04359 5.69884 9.15512C5.78566 9.21777 5.88831 9.24965 5.99144 9.24965ZM8 7.18203C7.91934 7.18203 7.83868 7.20153 7.76531 7.24053L6.65437 7.83103L6.86793 6.57203C6.89525 6.41106 6.84225 6.24687 6.72597 6.13228L5.81619 5.23572L7.06837 5.05175C7.23168 5.02775 7.37262 4.92472 7.44503 4.77637L8 3.63947L8.55496 4.77637C8.62737 4.92472 8.76831 5.02775 8.93162 5.05175L10.1838 5.23572L9.27403 6.13228C9.15774 6.24687 9.10474 6.41106 9.13206 6.57203L9.34562 7.83103L8.23468 7.24053C8.16131 7.20153 8.08065 7.18203 8 7.18203Z" fill="#D32F2F"/>
</svg>
