<svg width="13" height="13" viewBox="0 0 13 13" fill="none" xmlns="http://www.w3.org/2000/svg">
<path d="M11.0962 1.90379C9.8685 0.676127 8.23621 0 6.5 0C4.76379 0 3.1315 0.676127 1.90379 1.90379C0.676127 3.1315 0 4.76379 0 6.5C0 8.23621 0.676127 9.8685 1.90379 11.0962C3.1315 12.3239 4.76379 13 6.5 13C7.68861 13 8.8516 12.6761 9.86329 12.0633C10.1032 11.9179 10.1798 11.6057 10.0345 11.3658C9.88919 11.1259 9.57691 11.0493 9.33707 11.1946C8.48413 11.7113 7.50306 11.9844 6.5 11.9844C3.4759 11.9844 1.01562 9.5241 1.01562 6.5C1.01562 3.4759 3.4759 1.01562 6.5 1.01562C9.5241 1.01562 11.9844 3.4759 11.9844 6.5C11.9844 7.58136 11.6628 8.63393 11.0544 9.54393C10.8985 9.77707 10.9612 10.0924 11.1943 10.2483C11.4275 10.4042 11.7429 10.3416 11.8987 10.1084C12.6192 9.03078 13 7.78299 13 6.5C13 4.76379 12.3239 3.1315 11.0962 1.90379Z" fill="#D32F2F"/>
<path d="M5.9584 3.84473C5.60072 3.63719 5.17327 3.63647 4.81501 3.84285C4.4554 4.04991 4.24072 4.42171 4.24072 4.83737V8.16266C4.24072 8.57833 4.4554 8.95012 4.81501 9.15718C4.99361 9.26007 5.18932 9.31146 5.38508 9.31146C5.58204 9.31146 5.77904 9.25936 5.9584 9.15528L8.82367 7.49265C9.18119 7.28518 9.39465 6.9141 9.39465 6.5C9.39465 6.08591 9.18119 5.71482 8.82367 5.50736L5.9584 3.84473ZM8.31392 6.61419L5.44866 8.27681C5.39628 8.30726 5.35078 8.2937 5.32186 8.27707C5.29195 8.25985 5.25635 8.22603 5.25635 8.16263V4.83737C5.25635 4.77397 5.29195 4.74015 5.32186 4.72294C5.33826 4.71349 5.35997 4.70509 5.38523 4.70509C5.40456 4.70509 5.42596 4.71002 5.44866 4.72319L8.31392 6.38582C8.36775 6.41703 8.37903 6.46514 8.37903 6.5C8.37903 6.53487 8.36775 6.58298 8.31392 6.61419Z" fill="#D32F2F"/>
</svg>
