<svg width="16" height="16" viewBox="0 0 16 16" fill="none" xmlns="http://www.w3.org/2000/svg">
<g opacity="0.2">
<path d="M13.7551 2.24487C12.3075 0.797219 10.3828 0 8.33553 0C6.28828 0 4.36353 0.797219 2.91587 2.24487C1.46822 3.69253 0.671031 5.61722 0.671031 7.66447C0.671031 8.96131 0.999312 10.2357 1.62244 11.3645L0 16L4.63541 14.3776C5.76428 15.0007 7.03866 15.329 8.3355 15.329C10.3827 15.329 12.3075 14.5317 13.7551 13.0841C15.2028 11.6365 16 9.71175 16 7.66447C16 5.61719 15.2028 3.6925 13.7551 2.24487ZM12.1245 10.5117L11.2397 11.3966C10.5067 12.1296 8.42684 11.2382 6.59431 9.40569C4.76175 7.57312 3.87041 5.49334 4.60344 4.76031L5.48825 3.8755C5.6715 3.69225 5.96863 3.69225 6.15188 3.8755L7.25791 4.98153C7.44116 5.16478 7.44116 5.46191 7.25791 5.64516L6.59428 6.30878C7.238 7.66775 8.33225 8.76197 9.69122 9.40569L10.3548 8.74206C10.5381 8.55881 10.8352 8.55881 11.0185 8.74206L12.1245 9.84809C12.3078 10.0314 12.3078 10.3285 12.1245 10.5117Z" fill="black"/>
</g>
</svg>
