<svg width="21" height="21" viewBox="0 0 21 21" fill="none" xmlns="http://www.w3.org/2000/svg">
<path d="M9.02621 17.3196L11.3307 12.2282H12.3489V17.3196H13.7957V3.68041H11.2336C9.6028 3.68041 7.65976 5.39546 7.65976 8.18198C7.65976 10.969 10.098 12.0943 10.098 12.0943L7.2041 17.3196H9.02621ZM9.91976 10.3551C9.56373 9.90768 9.2537 9.16331 9.2537 7.92777C9.2537 5.22125 10.8099 4.87164 11.0246 4.83646C11.04 4.83392 11.055 4.83308 11.0704 4.83308H12.3085V11.0225H11.3452C10.7945 11.0225 10.2628 10.7858 9.91976 10.3551Z" fill="#D32F2F"/>
<path d="M0 0V21H21V0H0ZM19.701 19.701H1.29897V1.29897H19.701V19.701Z" fill="#D32F2F"/>
</svg>
