<svg width="27" height="19" viewBox="0 0 27 19" fill="none" xmlns="http://www.w3.org/2000/svg">
<path d="M26.4436 16.027C26.1325 17.1896 25.2205 18.1061 24.064 18.4191C21.9512 19 13.4997 19 13.4997 19C13.4997 19 5.04849 19 2.93558 18.4412C1.80135 18.1284 0.86721 17.1894 0.555943 16.027C0 13.9037 0 9.49992 0 9.49992C0 9.49992 0 5.07426 0.555943 2.973C0.867505 1.81061 1.77906 0.894146 2.93574 0.581129C5.07079 0 13.5 0 13.5 0C13.5 0 21.9512 0 24.064 0.558887C25.2207 0.871735 26.1325 1.78825 26.444 2.95063C26.9999 5.07426 26.9999 9.47772 26.9999 9.47772C26.9999 9.47772 27.0221 13.9037 26.4436 16.027ZM10.8089 5.43172V13.5683L17.8367 9.49992L10.8089 5.43172Z" fill="black"/>
</svg>
